<svg width="16" height="16" viewBox="0 0 16 16" fill="none" xmlns="http://www.w3.org/2000/svg">
<path d="M2.21053 0.554112V15.4459C2.21053 15.7519 2.45864 16 2.76466 16H6.6782C6.98422 16 7.23233 15.7519 7.23233 15.4459C7.23233 15.1399 6.98422 14.8918 6.6782 14.8918H3.31879V1.10823H6.6782C6.98422 1.10823 7.23233 0.860119 7.23233 0.554112C7.23233 0.248106 6.98422 0 6.6782 0H2.76466C2.45864 0 2.21053 0.248106 2.21053 0.554112ZM11.9847 8.55411H5.625C5.31899 8.55411 5.07087 8.30601 5.07087 8C5.07087 7.69399 5.31899 7.44589 5.625 7.44589H11.9847L10.2637 5.92127C10.0346 5.71834 10.0134 5.3681 10.2163 5.13907C10.4193 4.90997 10.7695 4.88887 10.9986 5.09172L13.8133 7.58523C13.8172 7.58871 13.82 7.59315 13.8238 7.59673C13.8406 7.6125 13.8555 7.6299 13.8703 7.64765C13.8795 7.65876 13.8894 7.66916 13.8977 7.6809C13.9121 7.70125 13.9238 7.72328 13.9354 7.74552C13.941 7.75638 13.9479 7.7665 13.9529 7.77772C13.9645 7.80414 13.9727 7.83214 13.9801 7.86053C13.9823 7.86887 13.9859 7.87667 13.9877 7.88512C13.9956 7.92222 14 7.96057 14 8C14 8.03943 13.9956 8.07778 13.9877 8.11488C13.9859 8.12334 13.9823 8.13116 13.9801 8.13951C13.9727 8.16788 13.9645 8.19586 13.9529 8.22227C13.9479 8.23351 13.941 8.24366 13.9354 8.25455C13.9238 8.27677 13.9121 8.29877 13.8977 8.3191C13.8894 8.33084 13.8795 8.34124 13.8703 8.35235C13.8555 8.3701 13.8406 8.3875 13.8238 8.40327C13.82 8.40685 13.8172 8.41129 13.8133 8.41477L10.9986 10.9083C10.8931 11.0017 10.7619 11.0476 10.6313 11.0476C10.4782 11.0476 10.3258 10.9845 10.2163 10.8609C10.0134 10.6319 10.0346 10.2817 10.2637 10.0787L11.9847 8.55411Z" fill="white"/>
</svg>
