<svg width="87" height="52" fill="none" xmlns="http://www.w3.org/2000/svg"><g clip-path="url(#a)"><path d="M87.002 1.059 62.512 14.45h9.807a33.686 33.686 0 0 0 2.753 33.361c-2.92-17.469 4.232-34.384 11.93-46.753Z" fill="#DA291C"/><path d="M3.358 51.922h.81v-3.84h-.81v3.84Zm-.104-4.987a.5.5 0 0 1 .514-.494c.288 0 .513.228.513.494a.505.505 0 0 1-.513.495.5.5 0 0 1-.514-.495ZM4.965 48.048h.779v.405c.233-.278.544-.469.957-.469.109 0 .233.024.319.048v.722a1.528 1.528 0 0 0-.397-.056c-.428 0-.67.151-.871.325v2.9h-.787v-3.875ZM7.363 51.713v-.624c.25.109.696.226 1.054.226.5 0 .742-.164.742-.515 0-.32-.242-.406-.71-.57-.563-.163-1.078-.46-1.078-1.146 0-.756.554-1.1 1.367-1.1.398 0 .773.086.96.164v.632a2.529 2.529 0 0 0-.93-.188c-.436 0-.647.156-.647.438 0 .28.195.39.687.546.531.171 1.124.42 1.124 1.177 0 .733-.562 1.17-1.397 1.17-.453 0-.898-.086-1.172-.21ZM10.653 50.815v-2.242h-.548v-.586h.557l.147-1.03h.672v1.03h.916v.586h-.916v2.123c0 .405.146.578.515.578.204 0 .385-.047.507-.095v.633a2.232 2.232 0 0 1-.695.112c-.762 0-1.155-.301-1.155-1.11ZM17.491 50.09l-.482-1.435c-.114-.334-.25-.741-.306-.98h-.017c-.064.239-.2.646-.313.98l-.507 1.435h1.625Zm-1.247-3.133h.966l1.8 4.967h-.916l-.386-1.156h-2.067l-.402 1.156h-.852l1.857-4.967ZM21.774 49.914c0-.772-.232-1.354-.962-1.354-.265 0-.52.096-.676.231v2.406c.163.055.388.087.598.087.73 0 1.04-.589 1.04-1.37Zm-2.422 1.744v-5.217h.784v1.824c.14-.159.466-.366.917-.366 1.102 0 1.552.884 1.552 1.975 0 1.123-.66 2.048-1.887 2.048-.512 0-1.017-.12-1.366-.264ZM23.121 50.553v-2.569h.783v2.442c0 .539.163.855.735.855.305 0 .587-.142.775-.269v-3.028h.79v3.876h-.783v-.309c-.188.15-.555.372-1.056.372-.93 0-1.244-.586-1.244-1.37ZM30.395 51.238c1.294 0 1.611-.837 1.611-1.794 0-.957-.301-1.818-1.564-1.818h-.675v3.612h.628Zm-1.454-4.281h1.597c1.7 0 2.342 1.195 2.342 2.487 0 1.22-.619 2.48-2.367 2.48h-1.572v-4.967ZM33.566 46.441h.775v1.796a1.741 1.741 0 0 1 1.056-.367c.931 0 1.252.578 1.252 1.351v2.53h-.79v-2.405c0-.53-.157-.843-.728-.843-.313 0-.595.14-.774.265v2.983h-.79v-5.31ZM39.334 51.074v-.889c-.057 0-.203-.009-.308-.009-.672 0-1.037.18-1.037.609 0 .352.243.546.648.546.3 0 .551-.117.697-.257Zm.106.42c-.18.22-.568.43-1.037.43-.746 0-1.239-.405-1.239-1.077 0-.788.688-1.17 1.782-1.17.129 0 .283.009.388.016v-.304c0-.546-.227-.772-.81-.772-.413 0-.761.117-.996.218v-.64c.276-.109.68-.21 1.142-.21.931 0 1.482.382 1.482 1.272v1.731c0 .242.113.32.29.32a.985.985 0 0 0 .147-.016v.546a1.11 1.11 0 0 1-.462.085c-.348 0-.582-.163-.687-.428ZM43.353 49.914c0-.772-.233-1.354-.963-1.354-.264 0-.52.096-.675.231v2.406c.163.055.388.087.597.087.73 0 1.041-.589 1.041-1.37Zm-2.423 1.744v-5.217h.785v1.824c.14-.159.465-.366.916-.366 1.102 0 1.553.884 1.553 1.975 0 1.123-.66 2.048-1.887 2.048a3.78 3.78 0 0 1-1.367-.264ZM44.803 51.922h.811v-3.84h-.81v3.84Zm-.104-4.987a.5.5 0 0 1 .514-.494c.289 0 .514.228.514.494a.505.505 0 0 1-.514.495.5.5 0 0 1-.514-.495ZM50.094 51.262c.588 0 .898-.278.898-.797 0-.534-.286-.83-.882-.83h-.82v1.627h.804Zm-.024-2.224c.573 0 .834-.263.834-.733 0-.407-.254-.686-.826-.686h-.787v1.419h.779Zm-1.605-2.081h1.7c1.026 0 1.566.503 1.566 1.26 0 .59-.382.98-.803 1.093v.015c.54.111.962.502.962 1.164 0 .87-.636 1.435-1.677 1.435h-1.748v-4.967ZM54.404 51.074v-.889c-.056 0-.202-.009-.307-.009-.673 0-1.037.18-1.037.609 0 .352.243.546.648.546.3 0 .55-.117.696-.257Zm.106.42c-.178.22-.567.43-1.036.43-.746 0-1.24-.405-1.24-1.077 0-.788.689-1.17 1.782-1.17.13 0 .283.009.388.016v-.304c0-.546-.227-.772-.81-.772-.412 0-.76.117-.995.218v-.64c.276-.109.68-.21 1.141-.21.931 0 1.482.382 1.482 1.272v1.731c0 .242.113.32.291.32.04 0 .098-.008.147-.016v.546a1.11 1.11 0 0 1-.463.085c-.347 0-.583-.163-.687-.428ZM56.004 48.048h.774v.31a1.72 1.72 0 0 1 1.057-.374c.93 0 1.252.587 1.252 1.372v2.567h-.79v-2.44c0-.539-.157-.856-.728-.856-.314 0-.595.142-.774.27v3.026h-.791v-3.875ZM61.824 51.377l-1.09-1.466v1.979h-.793V46.44h.792v3.245l1.358-1.714h.87l-1.435 1.762 1.005 1.314c.125.169.226.24.4.24.015 0 .03 0 .093-.007v.609a.843.843 0 0 1-.235.032c-.376 0-.65-.113-.965-.545ZM0 46.957h2.911v.686H.841v1.363h1.852v.646H.841v2.272H0v-4.967ZM43.328 14.418h10.497c5.98 0 9.212 2.832 9.212 7.037 0 3.407-2.08 5.488-4.34 6.106v.09c2.968.664 5.182 2.743 5.182 6.328 0 5.046-3.81 8.012-9.788 8.012H43.328V14.418Zm9.7 11.242c2.746 0 3.897-1.24 3.897-3.364 0-1.903-1.195-3.143-3.853-3.143h-3.676v6.507h3.632Zm.132 11.595c2.702 0 4.164-1.24 4.164-3.674 0-2.478-1.373-3.762-4.119-3.762h-3.809v7.436h3.764ZM24.576 14.418h6.774l10.095 27.573h-6.597l-1.77-5.488h-10.76l-1.86 5.488h-6.243l10.36-27.573Zm6.907 17.216-2.302-7.082c-.532-1.637-1.063-3.23-1.373-4.513h-.088c-.354 1.24-.886 2.92-1.418 4.513l-2.39 7.082h7.57ZM0 14.418h16.955v5.001H6.08v6.417h9.676v4.603H6.081V41.99H0V14.418ZM6.603 7.702h-.865a.834.834 0 0 1-.613-.256.84.84 0 0 1-.255-.614v-.54a.83.83 0 0 1 .255-.614.832.832 0 0 1 .613-.257c.237 0 .441.086.61.257.17.168.255.372.255.613v1.411Zm-.865-3.046c-.449 0-.832.161-1.15.482a1.569 1.569 0 0 0-.479 1.153v.541c0 .451.16.837.478 1.158.319.318.702.477 1.151.477h.865a.75.75 0 0 1-.24.516.734.734 0 0 1-.524.214h-.857c-.063 0-.095.032-.095.098v.571c0 .066.032.1.095.1h.857c.414 0 .771-.153 1.07-.457.304-.302.454-.661.454-1.077v-2.14c0-.452-.158-.837-.474-1.154a1.565 1.565 0 0 0-1.15-.482ZM11.552 2.941h-.562c-.062 0-.092.031-.092.093v3.91c0 .201-.043.345-.13.431-.087.083-.23.125-.431.127h-2.2c-.057 0-.086.033-.086.097v.56c0 .06.031.091.092.091h2.194c.408 0 .729-.116.962-.35.232-.23.348-.55.348-.96V3.034c0-.062-.031-.093-.095-.093Z" fill="#fff"/><path d="M9.162 3.629c-.056 0-.084.032-.084.096v3.576c0 .064.028.096.084.096h.514c.058 0 .087-.032.087-.096V3.725c0-.064-.029-.096-.087-.096h-.514ZM8.81 3.112h1.39c.05 0 .076-.024.076-.074v-.217c0-.048-.026-.073-.076-.073h-.799V2.34c0-.064.024-.12.073-.164a.237.237 0 0 1 .17-.066c.107 0 .18.046.219.14l.045.1c.01.018.023.031.038.04a.088.088 0 0 0 .032.007.07.07 0 0 0 .03-.006l.21-.088c.032-.015.048-.035.048-.06a.092.092 0 0 0-.008-.034l-.044-.1c-.107-.245-.297-.367-.57-.367a.616.616 0 0 0-.441.177.563.563 0 0 0-.18.421v.408H8.81c-.051 0-.077.025-.077.073v.217c0 .05.026.074.077.074ZM13.104 2.941h-.512c-.059 0-.088.033-.088.096v5.121c0 .061.029.092.088.092h.512c.057 0 .085-.03.085-.092v-5.12c0-.064-.028-.097-.085-.097ZM18.891 9.965h-.477c-.06 0-.09.029-.09.086v.506c0 .06.03.09.09.09h.477c.058 0 .087-.03.087-.09v-.506c0-.057-.029-.086-.087-.086ZM17.689 9.965h-.478c-.058 0-.086.029-.086.086v.506c0 .06.028.09.086.09h.478c.057 0 .085-.03.085-.09v-.506c0-.057-.028-.086-.085-.086ZM28.481 9.11h-.48c-.058 0-.087.028-.087.086v.506c0 .06.029.089.086.089h.481c.058 0 .087-.03.087-.09v-.505c0-.058-.03-.087-.087-.087ZM33.669 7.023c0 .208-.044.355-.132.442-.086.09-.231.134-.437.137h-2.08V6.37c.231-.266.54-.508.927-.725.387-.215.69-.324.907-.324.319 0 .546.131.683.393.088.168.132.374.132.618v.69Zm-.815-2.469c-.503 0-1.115.28-1.834.842V3.039c0-.065-.032-.098-.097-.098h-.568c-.063 0-.094.033-.094.098v4.563h-1.138c-.17 0-.28-.024-.333-.074a.167.167 0 0 1-.025-.097V4.796c0-.063-.032-.095-.097-.095H28.1c-.06 0-.09.032-.09.095v2.54c0 .1-.02.17-.059.21-.04.038-.103.056-.193.056h-5.821V5.87c0-.363-.127-.672-.381-.93a1.235 1.235 0 0 0-.919-.386c-.358 0-.663.129-.915.386a1.273 1.273 0 0 0-.381.93v2.644h-2.098a.88.88 0 0 1-.638-.267.886.886 0 0 1-.263-.645c0-.178.046-.343.139-.495a.89.89 0 0 1 .37-.347l.254-.133c.04-.018.059-.043.059-.074a.11.11 0 0 0-.017-.052l-.257-.512a.094.094 0 0 0-.055-.05.073.073 0 0 0-.073.007l-.254.13c-.28.146-.504.356-.672.632a1.711 1.711 0 0 0-.25.894c0 .465.163.862.485 1.189a1.57 1.57 0 0 0 1.151.487h2.497a.36.36 0 0 0 .267-.112.371.371 0 0 0 .11-.27V5.87a.53.53 0 0 1 .16-.39.514.514 0 0 1 .381-.161.52.52 0 0 1 .385.161.53.53 0 0 1 .16.39v2.114c0 .108.037.198.11.27a.359.359 0 0 0 .267.112h6.195c.284 0 .517-.083.697-.249.196.166.466.25.81.25h3.84c.416 0 .74-.12.974-.358.233-.236.35-.565.35-.986v-.69c0-.531-.144-.96-.433-1.288-.289-.327-.668-.49-1.137-.49Z" fill="#fff"/><path d="M32.282 3.967h.477c.06 0 .09-.029.09-.087v-.506c0-.06-.03-.089-.09-.089h-.477c-.058 0-.087.03-.087.09v.505c0 .058.03.087.087.087ZM37.59 7.702h-.862a.825.825 0 0 1-.608-.256.842.842 0 0 1-.253-.614v-.54c0-.242.084-.446.253-.614a.823.823 0 0 1 .608-.257c.238 0 .441.086.607.257.17.168.254.372.254.613v1.411ZM43.577 4.8h-.569c-.062 0-.094.032-.094.095v2.54c0 .101-.02.171-.059.21-.036.038-.107.057-.208.057H38.35v-1.41c0-.452-.16-.837-.476-1.154-.318-.321-.7-.482-1.146-.482-.447 0-.828.161-1.143.482a1.575 1.575 0 0 0-.476 1.153v.541c0 .451.16.837.476 1.158.315.318.696.477 1.143.477h.861a.764.764 0 0 1-.236.516.739.739 0 0 1-.521.214h-.857c-.063 0-.094.032-.094.098v.571c0 .066.031.1.094.1h.857a1.45 1.45 0 0 0 1.052-.443 1.5 1.5 0 0 0 .466-1.056h4.298c.31 0 .56-.093.747-.278.185-.191.277-.443.277-.754v-2.54c0-.063-.031-.095-.094-.095ZM43.04 9.11h-.478c-.06 0-.09.028-.09.086v.506c0 .06.03.089.09.089h.478c.057 0 .086-.03.086-.09v-.505c0-.058-.029-.087-.086-.087ZM45.651 2.062h-.796v-.408c0-.065.023-.12.07-.165a.236.236 0 0 1 .17-.067c.105 0 .178.046.217.141l.045.101c.015.032.036.047.064.047a.101.101 0 0 0 .035-.006l.213-.084c.018-.007.031-.021.039-.044a.073.073 0 0 0 .006-.027.07.07 0 0 0-.006-.027l-.042-.1c-.108-.243-.298-.364-.57-.364a.61.61 0 0 0-.44.174.561.561 0 0 0-.182.42v.409h-.213c-.052 0-.077.024-.077.074v.219c0 .049.025.074.077.074h1.39c.05 0 .074-.025.074-.074v-.219c0-.05-.025-.074-.074-.074ZM45.127 2.941h-.51c-.06 0-.09.031-.09.093v5.124c0 .061.03.092.09.092h.51c.057 0 .085-.03.085-.092V3.034c0-.062-.028-.093-.085-.093ZM49.569 5.683h1.392c.048 0 .072-.025.072-.074v-.22c0-.05-.024-.074-.072-.074h-.798V4.91a.23.23 0 0 1 .07-.168.238.238 0 0 1 .17-.067c.11 0 .182.047.22.14l.045.105c.014.028.036.043.066.043a.13.13 0 0 0 .038-.007l.21-.084a.092.092 0 0 0 .037-.04.082.082 0 0 0 .004-.026.1.1 0 0 0-.004-.03l-.045-.1c-.107-.244-.297-.364-.57-.364a.61.61 0 0 0-.439.173.574.574 0 0 0-.18.425v.404h-.216c-.051 0-.077.025-.077.074v.22c0 .05.026.074.077.074ZM59.684 3.964h.482c.056 0 .085-.029.085-.086V3.37c0-.057-.029-.086-.085-.086h-.482c-.058 0-.086.029-.086.086v.507c0 .057.028.086.086.086Z" fill="#fff"/><path d="M62.93 4.665h-.568c-.062 0-.093.03-.093.093v2.484c0 .099-.02.167-.06.206-.037.036-.105.055-.207.055h-1.416c-.162 0-.266-.025-.312-.075-.02-.019-.031-.051-.031-.097V4.754c0-.064-.032-.096-.093-.096h-.569c-.061 0-.093.032-.093.096v2.481c0 .103-.019.172-.055.206-.04.039-.104.06-.194.062h-6.232c-.164 0-.27-.025-.315-.075-.019-.014-.028-.046-.028-.097V3.034c0-.06-.031-.093-.094-.093h-.567c-.065 0-.098.032-.098.093v4.201c0 .106-.017.175-.055.21-.04.039-.105.058-.197.058h-2.392a.889.889 0 0 1-.635-.26.865.865 0 0 1-.262-.632.91.91 0 0 1 .138-.484.916.916 0 0 1 .37-.34l.254-.13c.037-.019.055-.043.055-.073a.118.118 0 0 0-.013-.05l-.257-.502a.093.093 0 0 0-.055-.048.065.065 0 0 0-.032-.007.078.078 0 0 0-.041.014l-.256.127c-.28.141-.502.347-.669.617-.165.27-.249.562-.249.876 0 .455.162.842.484 1.163.324.318.713.476 1.168.476h2.381c.289 0 .525-.081.707-.246.196.165.468.246.814.246h6.062c.289 0 .524-.081.706-.246.196.165.467.246.81.246H62.003c.309 0 .558-.09.744-.27.185-.188.277-.434.277-.738V4.758c0-.062-.03-.093-.093-.093ZM3.159 2.941h-.555c-.063 0-.095.032-.095.095v4.911a.89.89 0 0 1-.26.645.84.84 0 0 1-.622.265.84.84 0 0 1-.623-.265.887.887 0 0 1-.262-.645v-1.81c0-.065-.03-.098-.088-.098H.095c-.064 0-.095.033-.095.099v1.81c0 .461.158.856.477 1.182.317.327.7.49 1.15.49.447 0 .83-.163 1.15-.49.318-.326.477-.72.477-1.183v-4.91c0-.064-.032-.096-.095-.096ZM62.391 9.11h-.477c-.06 0-.09.028-.09.086v.506c0 .06.03.089.09.089h.477c.057 0 .087-.03.087-.09v-.505c0-.058-.03-.087-.087-.087Z" fill="#fff"/></g><defs><clipPath id="a"><path fill="#fff" d="M0 0h87v52H0z"/></clipPath></defs></svg>