<svg width="156" height="16" viewBox="0 0 156 16" fill="none" xmlns="http://www.w3.org/2000/svg">
<g clipPath="url(#clip0_6036_15062)">
<path d="M0.000137329 10.8265H2.66115C2.8329 12.4385 3.71296 13.1893 5.68699 13.1893C7.66102 13.1893 8.43388 12.4829 8.43388 11.3342C8.43388 10.3627 7.85463 9.6997 6.33078 9.41265L3.94872 8.94887C1.73841 8.53007 0.32229 6.98397 0.32229 4.75343C0.32229 2.23585 2.12458 0.51355 5.47257 0.51355C8.82057 0.51355 10.5802 2.23585 10.7087 4.8418H8.02637C7.81195 3.47242 6.93189 2.80995 5.42937 2.80995C3.92686 2.80995 3.02598 3.40601 3.02598 4.62062C3.02598 5.50373 3.54122 6.21064 5.15042 6.49769L7.53247 6.93952C9.82866 7.35938 11.1381 8.81659 11.1381 11.1574C11.1381 14.0279 9.12086 15.4857 5.60112 15.4857C2.08138 15.4857 0.236417 13.9182 0.000137329 10.8265ZM15.7091 15.1547H18.8208L21.5677 4.39998L24.3359 15.1547H27.405L31.2682 0.778643H28.5859L26.0107 11.4889L23.3279 0.778643H20.0871L17.3402 11.7321L14.8082 0.778643H11.9541L15.7096 15.1547H15.7091ZM33.2209 0.778643H43.0499V3.1195H35.8819V6.63051H42.1912V8.97136H35.8819V12.8139H43.0499V15.1547H33.2209V0.778643ZM44.4874 15.1547H47.2556L48.3933 11.8863H54.2946L55.4109 15.1547H58.3077L53.1142 0.778643H49.5737L44.4874 15.1547ZM49.2088 9.54546L51.3551 3.3621L53.4801 9.54546H49.2094H49.2088ZM62.2568 3.1195H57.7071V0.778643H69.5102V3.1195H64.9178V15.1547H62.2568V3.1195ZM76.0984 15.1547H78.76V9.43514L84.0607 0.778643H81.0775L77.4938 6.82973L73.9095 0.778643H70.7332L76.0984 9.546V15.1553V15.1547ZM90.6271 0.778643H97.7306C99.7265 0.778643 101.443 2.30226 101.443 4.35606C101.443 5.59263 100.928 6.80724 99.6619 7.35938C101.25 7.91152 102.087 9.28037 102.087 10.9368C102.087 13.4324 100.199 15.1547 97.7732 15.1547H90.6271V0.778643ZM97.1513 6.52019C98.2239 6.52019 98.8251 5.63708 98.8251 4.79788C98.8251 3.78196 98.0522 3.1195 97.1727 3.1195H93.2881V6.52019H97.1513ZM97.473 12.8139C98.5461 12.8139 99.383 11.9083 99.383 10.8265C99.383 9.74468 98.632 8.86104 97.3657 8.86104H93.2881V12.8139H97.473ZM104.34 15.1547H114.169V12.8139H107.001V8.97136H113.31V6.63051H107.001V3.1195H114.169V0.778643H104.34V15.1547ZM120.585 3.1195H116.036V0.778643H127.839V3.1195H123.246V15.1547H120.585V3.1195ZM134.041 15.1547H136.702V3.1195H141.295V0.778643H129.491V3.1195H134.041V15.1547ZM147.732 9.43514L142.41 0.778643H145.587L149.256 6.96201L152.883 0.778643H155.716L147.196 15.1547H144.299L147.732 9.43514Z" fill="#333333"/>
</g>
<defs>
<clipPath id="clip0_6036_15062">
<rect width="155.716" height="14.9727" fill="white" transform="translate(0 0.513672)"/>
</clipPath>
</defs>
</svg>
