<svg width="81" height="50" viewBox="0 0 81 50" fill="none" xmlns="http://www.w3.org/2000/svg">
<path d="M23.9842 27.257C22.7712 27.257 21.7796 26.2753 21.7796 25.0529C21.7796 23.8305 22.7615 22.8487 23.9842 22.8487C25.2068 22.8487 26.1887 23.8305 26.1887 25.0529C26.1887 26.2753 25.1972 27.257 23.9842 27.257ZM24.8699 19.6531C24.8699 18.4404 23.8879 17.449 22.6653 17.449C21.4427 17.449 20.4607 18.4307 20.4607 19.6531C20.4607 20.8659 21.4427 21.8573 22.6653 21.8573C23.8879 21.8573 24.8699 20.8659 24.8699 19.6531ZM20.9132 15.7742C20.9132 14.5614 19.9312 13.57 18.7086 13.57C17.486 13.57 16.504 14.5518 16.504 15.7742C16.504 16.987 17.486 17.9783 18.7086 17.9783C19.9312 17.9783 20.9132 16.987 20.9132 15.7742ZM15.628 14.5518C15.628 13.3294 14.646 12.3476 13.4234 12.3476C12.2008 12.3476 11.2188 13.3294 11.2188 14.5518C11.2188 15.7742 12.2008 16.7559 13.4234 16.7559C14.6364 16.7559 15.628 15.7742 15.628 14.5518ZM10.4005 16.0629C10.4005 14.8502 9.41859 13.8588 8.19597 13.8588C6.97334 13.8588 5.99139 14.8405 5.99139 16.0629C5.99139 17.2853 6.97334 18.2671 8.19597 18.2671C9.41859 18.2575 10.3909 17.2757 10.4005 16.0629ZM6.54976 19.8841C6.54976 18.6714 5.56781 17.68 4.34518 17.68C3.12256 17.68 2.14061 18.6617 2.14061 19.8841C2.14061 21.0969 3.12256 22.0883 4.34518 22.0883C5.55818 22.0787 6.54013 21.0969 6.54976 19.8841ZM5.12497 25.0047C5.12497 23.792 4.14302 22.8006 2.92039 22.8006C1.69777 22.8006 0.71582 23.7823 0.71582 25.0047C0.71582 26.2271 1.69777 27.1993 2.92039 27.1993C4.13339 27.1993 5.11534 26.2175 5.12497 25.0047ZM6.64603 30.1542C6.64603 28.9318 5.66408 27.95 4.44145 27.95C3.21883 27.95 2.23688 28.9318 2.23688 30.1542C2.23688 31.367 3.21883 32.3584 4.43183 32.3584C5.64482 32.3488 6.62677 31.367 6.64603 30.1542ZM10.5449 34.0332C10.5449 32.8204 9.56299 31.829 8.34037 31.829C7.11775 31.829 6.1358 32.8204 6.1358 34.0332C6.1358 35.2459 7.11775 36.2373 8.34037 36.2373C9.55337 36.2373 10.5353 35.2459 10.5449 34.0332ZM15.8783 35.4192C15.8783 34.2064 14.8963 33.215 13.6737 33.215C12.4607 33.215 11.4691 34.1968 11.4691 35.4192C11.4691 36.632 12.4511 37.6234 13.6737 37.6234C14.8867 37.6137 15.8686 36.632 15.8783 35.4192ZM21.4138 34.2257C21.4138 33.0129 20.4318 32.0215 19.2092 32.0215C17.9866 32.0215 17.0143 33.0129 17.0143 34.2257C17.0143 35.4384 17.9962 36.4298 19.2188 36.4298C20.4415 36.4298 21.4138 35.4481 21.4138 34.2257ZM26.3717 36.2566C26.3717 35.0438 25.3897 34.0524 24.1671 34.0524C22.9541 34.0524 21.9625 35.0342 21.9625 36.2566C21.9625 37.479 22.9445 38.4608 24.1671 38.4608C25.3897 38.4608 26.3717 37.4694 26.3717 36.2566C26.3717 36.247 26.3717 36.247 26.3717 36.247V36.2566ZM25.7267 41.5119C25.7267 40.2992 24.7447 39.3078 23.5221 39.3078C22.3091 39.3078 21.3175 40.2895 21.3175 41.5119C21.3175 42.7247 22.2995 43.7161 23.5221 43.7161C24.7351 43.7161 25.717 42.7247 25.7267 41.5119C25.7267 41.5023 25.7267 41.5023 25.7267 41.5023V41.5119ZM21.7218 45.2754C21.7218 44.0626 20.7399 43.0712 19.5173 43.0712C18.3043 43.0712 17.3127 44.053 17.3127 45.2754C17.3127 46.4882 18.2946 47.4796 19.5173 47.4796C20.7399 47.4796 21.7218 46.4882 21.7218 45.2754ZM16.4078 46.8635C16.4078 45.6508 15.4258 44.6594 14.2032 44.6594C12.9806 44.6594 12.0082 45.6411 12.0082 46.8635C12.0082 48.0763 12.9902 49.0677 14.2128 49.0677C15.4258 49.0581 16.4078 48.0763 16.4078 46.8635ZM11.0263 45.2754C11.0263 44.0626 10.0443 43.0712 8.82172 43.0712C7.60872 43.0712 6.61714 44.053 6.61714 45.2754C6.61714 46.4882 7.59909 47.4796 8.82172 47.4796C10.0347 47.4796 11.0263 46.4882 11.0263 45.2754ZM26.2561 30.6643C26.2561 29.4419 25.2742 28.4602 24.0516 28.4602C22.8289 28.4602 21.847 29.4419 21.847 30.6643C21.847 31.8867 22.8289 32.8685 24.0516 32.8685C25.2646 32.8589 26.2561 31.8771 26.2561 30.6643ZM33.5919 35.4577C33.5919 34.2449 32.6099 33.2535 31.3873 33.2535C30.1743 33.2535 29.1827 34.2353 29.1827 35.4577C29.1827 36.6801 30.1647 37.6619 31.3873 37.6619C32.6099 37.6522 33.5919 36.6705 33.5919 35.4577ZM33.5919 30.0676C33.5919 28.8548 32.6099 27.8634 31.3873 27.8634C30.1743 27.8634 29.1827 28.8452 29.1827 30.0676C29.1827 31.29 30.1647 32.2718 31.3873 32.2718C32.6099 32.2718 33.5919 31.2804 33.5919 30.0676ZM33.5919 24.6871C33.5919 23.4743 32.6099 22.4829 31.3873 22.4829C30.1743 22.4829 29.1827 23.4647 29.1827 24.6871C29.1827 25.9095 30.1647 26.8913 31.3873 26.8913C32.6099 26.8816 33.5919 25.8999 33.5919 24.6871ZM52.5474 35.4577C52.5474 34.2449 51.5654 33.2535 50.3428 33.2535C49.1298 33.2535 48.1382 34.2353 48.1382 35.4577C48.1382 36.6801 49.1202 37.6619 50.3428 37.6619C51.5558 37.6522 52.5474 36.6705 52.5474 35.4577ZM52.5474 30.0676C52.5474 28.8548 51.5654 27.8634 50.3428 27.8634C49.1298 27.8634 48.1382 28.8452 48.1382 30.0676C48.1382 31.29 49.1202 32.2718 50.3428 32.2718C51.5558 32.2718 52.5474 31.2804 52.5474 30.0676ZM52.5474 24.7449C52.5474 23.5321 51.5654 22.5407 50.3428 22.5407C49.1298 22.5407 48.1382 23.5225 48.1382 24.7449C48.1382 25.9673 49.1202 26.949 50.3428 26.949C51.5558 26.949 52.5474 25.9673 52.5474 24.7449ZM51.6809 19.6916C51.6809 18.4789 50.6893 17.4875 49.4763 17.4875C48.2634 17.4875 47.2718 18.4789 47.2718 19.6916C47.2718 20.9044 48.2634 21.8958 49.4763 21.8958C50.6893 21.8862 51.6617 20.9044 51.6617 19.6916H51.6809ZM48.3404 15.5624C48.3404 14.3496 47.3488 13.3583 46.1358 13.3583C44.9228 13.3583 43.9312 14.3496 43.9312 15.5624C43.9312 16.7752 44.9228 17.7666 46.1358 17.7666C47.3488 17.7762 48.3404 16.7848 48.3404 15.5624ZM43.2573 14.494C43.2573 13.2813 42.2754 12.2899 41.0528 12.2899C39.8398 12.2899 38.8482 13.2716 38.8482 14.494C38.8482 15.7068 39.8301 16.6982 41.0528 16.6982C42.2658 16.6886 43.2477 15.7068 43.2477 14.4844L43.2573 14.494ZM38.2898 16.1784C38.2898 14.9657 37.3079 13.9743 36.0853 13.9743C34.8723 13.9743 33.8807 14.956 33.8807 16.1784C33.8807 17.4008 34.8626 18.3826 36.0853 18.3826C37.2983 18.373 38.2802 17.3912 38.2802 16.1688L38.2898 16.1784ZM33.6015 19.3066C33.6015 18.0938 32.6196 17.1025 31.3969 17.1025C30.1839 17.1025 29.1924 18.0842 29.1924 19.3066C29.1924 20.529 30.1743 21.5108 31.3969 21.5108C32.6099 21.5012 33.5919 20.5194 33.5919 19.297L33.6015 19.3066ZM33.6015 13.9165C33.6015 12.7037 32.6196 11.7123 31.3969 11.7123C30.1839 11.7123 29.1924 12.6941 29.1924 13.9165C29.1924 15.1389 30.1743 16.1207 31.3969 16.1207C32.6099 16.1111 33.5919 15.1293 33.5919 13.9069L33.6015 13.9165ZM33.6015 8.53603C33.6015 7.32326 32.6196 6.33186 31.3969 6.33186C30.1839 6.33186 29.1924 7.31363 29.1924 8.53603C29.1924 9.75843 30.1743 10.7402 31.3969 10.7402C32.6099 10.7306 33.5919 9.74881 33.5919 8.52641L33.6015 8.53603ZM33.6015 3.14592C33.6015 1.93315 32.6196 0.941754 31.3969 0.941754C30.1839 0.941754 29.1924 1.92352 29.1924 3.14592C29.1924 4.36832 30.1743 5.35009 31.3969 5.35009C32.6099 5.34047 33.5919 4.3587 33.5919 3.1363L33.6015 3.14592ZM80.7158 24.793C80.7158 23.5802 79.7339 22.5888 78.5112 22.5888C77.2982 22.5888 76.3067 23.5706 76.3067 24.793C76.3067 26.0154 77.2886 26.9972 78.5112 26.9972C79.7242 26.9875 80.7062 26.0058 80.7062 24.7834L80.7158 24.793ZM59.3536 24.7641C59.3536 23.5513 58.3717 22.5599 57.149 22.5599C55.936 22.5599 54.9445 23.5417 54.9445 24.7641C54.9445 25.9865 55.9264 26.9683 57.149 26.9683C58.362 26.9587 59.3344 25.9673 59.3344 24.7545L59.3536 24.7641ZM60.9998 19.4317C60.9998 18.2093 60.0179 17.2276 58.7952 17.2276C57.5726 17.2276 56.5907 18.2093 56.5907 19.4317C56.5907 20.6541 57.5726 21.6359 58.7952 21.6359C60.0082 21.6263 60.9902 20.6445 60.9902 19.4221L60.9998 19.4317ZM65.0528 15.6683C65.0431 14.4459 64.0516 13.4641 62.8386 13.4738C61.6159 13.4834 60.634 14.4748 60.6436 15.6875C60.6532 16.8907 61.6159 17.8628 62.8193 17.8821C64.0419 17.8917 65.0335 16.9099 65.0335 15.6875C65.0335 15.6779 65.0335 15.6779 65.0335 15.6683H65.0528ZM70.5209 14.5518C70.5209 13.339 69.5293 12.3476 68.3163 12.3476C67.1033 12.3476 66.1117 13.339 66.1117 14.5518C66.1117 15.7646 67.0937 16.7463 68.3067 16.7559C69.5197 16.7463 70.5016 15.7646 70.5016 14.5518H70.5209ZM75.7772 16.1496C75.7772 14.9272 74.7952 13.9454 73.5726 13.9454C72.35 13.9454 71.368 14.9272 71.368 16.1496C71.368 17.372 72.35 18.3537 73.5726 18.3537C74.7856 18.3441 75.7772 17.3623 75.7772 16.1496ZM60.788 30.0002C60.788 28.7874 59.8061 27.796 58.5834 27.796C57.3705 27.796 56.3789 28.7778 56.3789 30.0002C56.3789 31.2226 57.3608 32.2044 58.5834 32.2044C59.7964 32.1948 60.788 31.213 60.788 30.0002ZM64.6388 33.8695C64.6388 32.6568 63.6569 31.6654 62.4342 31.6654C61.2212 31.6654 60.2297 32.6471 60.2297 33.8695C60.2297 35.0919 61.2116 36.0737 62.4342 36.0737C63.6472 36.0737 64.6388 35.0919 64.6388 33.8695C64.6484 33.8695 64.6484 33.8695 64.6388 33.8695ZM69.9529 35.3807C69.9529 34.1583 68.9709 33.1765 67.7483 33.1765C66.5257 33.1765 65.5437 34.1583 65.5437 35.3807C65.5437 36.6031 66.5257 37.5849 67.7483 37.5849C68.9613 37.5849 69.9529 36.6031 69.9529 35.3807C69.9625 35.3903 69.9625 35.3807 69.9529 35.3807ZM75.267 33.9658C75.267 32.753 74.285 31.7616 73.0624 31.7616C71.8494 31.7616 70.8578 32.7434 70.8578 33.9658C70.8578 35.1882 71.8398 36.17 73.0624 36.17C74.2754 36.17 75.267 35.1882 75.267 33.9658C75.2766 33.9754 75.2766 33.9658 75.267 33.9658ZM79.1948 30.1061C79.1948 28.8837 78.2032 27.9019 76.9902 27.9019C75.7676 27.9019 74.7856 28.8933 74.7856 30.1061C74.7856 31.3285 75.7772 32.3103 76.9902 32.3103C78.2032 32.3199 79.1948 31.3285 79.1948 30.1061C79.2044 30.1157 79.2044 30.1061 79.1948 30.1061ZM80.6966 19.374C80.6966 18.1612 79.7146 17.1698 78.492 17.1698C77.279 17.1698 76.2874 18.1516 76.2874 19.374C76.2874 20.5964 77.2694 21.5782 78.492 21.5782C79.7146 21.5782 80.7062 20.5964 80.6966 19.374C80.7062 19.374 80.7062 19.374 80.6966 19.374ZM80.6966 13.9646C80.6966 12.7519 79.7146 11.7605 78.492 11.7605C77.279 11.7605 76.2874 12.7422 76.2874 13.9646C76.2874 15.1774 77.2694 16.1688 78.492 16.1688C79.7146 16.1688 80.7062 15.187 80.6966 13.9646C80.7062 13.9646 80.7062 13.9646 80.6966 13.9646ZM80.6966 8.55528C80.6966 7.34251 79.7146 6.35111 78.492 6.35111C77.279 6.35111 76.2874 7.33288 76.2874 8.55528C76.2874 9.76806 77.2694 10.7595 78.492 10.7595C79.7146 10.7595 80.7062 9.77768 80.6966 8.55528C80.7062 8.55528 80.7062 8.55528 80.6966 8.55528ZM80.6966 3.1363C80.6966 1.92352 79.7146 0.932129 78.492 0.932129C77.279 0.932129 76.2874 1.9139 76.2874 3.1363C76.2874 4.3587 77.2694 5.34047 78.492 5.34047C79.7146 5.35009 80.7062 4.36832 80.6966 3.1363C80.7062 3.14592 80.7062 3.14592 80.6966 3.1363ZM33.1683 42.4456V43.2541H33.149C33.0913 43.1193 33.0143 43.0038 32.9276 42.8883C32.8313 42.7728 32.7158 42.6766 32.5907 42.5996C32.4559 42.513 32.3115 42.4456 32.1575 42.3975C32.0034 42.3493 31.8301 42.3301 31.6665 42.3205C31.3584 42.3108 31.0504 42.3782 30.7615 42.5033C30.5112 42.6188 30.2802 42.7921 30.0973 43.0135C29.9144 43.2348 29.7796 43.4851 29.693 43.7642C29.5967 44.053 29.5486 44.361 29.5486 44.669C29.5486 44.9866 29.5871 45.3043 29.6641 45.6123C29.7315 45.8914 29.8662 46.1417 30.0395 46.3727C30.2128 46.594 30.4439 46.7673 30.6942 46.8828C30.9926 47.0176 31.3199 47.0753 31.6569 47.0657C31.9745 47.0753 32.2922 46.979 32.5618 46.8058C32.8121 46.6325 33.0143 46.3919 33.1394 46.1128H33.1587V46.748C33.1875 47.2101 33.0624 47.6624 32.8121 48.0474C32.5233 48.3747 32.0901 48.5383 31.6569 48.4998C31.5028 48.4998 31.3488 48.4806 31.1948 48.4517C31.0504 48.4228 30.9156 48.3651 30.7808 48.2881C30.6557 48.2111 30.5498 48.1148 30.4631 47.9993C30.3765 47.8646 30.3091 47.7202 30.2898 47.5662H29.7122C29.7218 47.7972 29.7892 48.0089 29.9144 48.2015C30.0299 48.3747 30.1839 48.5287 30.3572 48.6346C30.5401 48.7501 30.7423 48.8367 30.9637 48.8848C31.1851 48.9426 31.4162 48.9715 31.6472 48.9715C31.9745 48.9811 32.3019 48.9233 32.6099 48.8175C32.8602 48.7212 33.072 48.5672 33.2453 48.3747C33.4186 48.1726 33.5341 47.9319 33.6015 47.6721C33.6785 47.3641 33.717 47.0561 33.717 46.7384V42.4552L33.1683 42.4456ZM30.9733 46.4208C30.7808 46.3149 30.6171 46.1802 30.492 46.0069C30.3572 45.8337 30.2609 45.6315 30.2032 45.4101C30.1454 45.1888 30.1165 44.9578 30.1165 44.7268C30.1165 44.4861 30.1454 44.2455 30.2032 44.0145C30.2513 43.7931 30.3476 43.5814 30.4824 43.3985C30.6075 43.2156 30.7712 43.0712 30.9637 42.9557C31.1755 42.8402 31.4162 42.7825 31.6569 42.7921C31.8975 42.7825 32.1382 42.8402 32.35 42.9653C32.5329 43.0808 32.6966 43.2349 32.8121 43.4177C32.9372 43.6102 33.0239 43.822 33.072 44.0434C33.1298 44.2647 33.149 44.4957 33.149 44.7268C33.149 44.9578 33.1202 45.1888 33.0528 45.4101C32.995 45.6219 32.8987 45.824 32.764 46.0069C32.6388 46.1802 32.4751 46.3149 32.2922 46.4208C32.0901 46.5267 31.8687 46.5844 31.6376 46.5748C31.4066 46.5748 31.1755 46.5267 30.9733 46.4208ZM35.6328 42.5033C35.3632 42.6285 35.1322 42.8113 34.9396 43.0327C34.7471 43.2637 34.6027 43.5332 34.5161 43.822C34.3235 44.438 34.3235 45.1021 34.5161 45.7278C34.6027 46.0165 34.7471 46.2764 34.9396 46.5074C35.1322 46.7288 35.3632 46.9117 35.6328 47.0368C36.2393 47.2967 36.9228 47.2967 37.5197 47.0368C37.7892 46.9117 38.0203 46.7288 38.2128 46.5074C38.4053 46.2764 38.5498 46.0069 38.6364 45.7278C38.8289 45.1118 38.8289 44.4476 38.6364 43.822C38.5498 43.5332 38.4053 43.2637 38.2128 43.0327C38.0203 42.8113 37.7892 42.6285 37.5197 42.5033C36.9228 42.2435 36.2393 42.2435 35.6328 42.5033ZM37.2983 42.9557C37.5004 43.0616 37.6737 43.2156 37.8085 43.4081C37.9433 43.6006 38.0492 43.8124 38.1165 44.0434C38.2513 44.515 38.2513 45.0155 38.1165 45.4871C38.0492 45.7182 37.9433 45.9299 37.8085 46.1224C37.6737 46.3053 37.5004 46.4593 37.2983 46.5748C36.8458 46.8058 36.3163 46.8058 35.8735 46.5748C35.6713 46.4593 35.498 46.3053 35.3632 46.1224C35.2285 45.9299 35.1226 45.7182 35.0552 45.4871C34.9204 45.0155 34.9204 44.515 35.0552 44.0434C35.1226 43.8124 35.2188 43.6006 35.3632 43.4081C35.498 43.2252 35.6713 43.0712 35.8735 42.9557C36.3163 42.7343 36.8458 42.7343 37.2983 42.9557ZM40.4559 42.5033C40.1863 42.6285 39.9553 42.8113 39.7627 43.0327C39.5702 43.2637 39.4258 43.5332 39.3392 43.822C39.1466 44.438 39.1466 45.1021 39.3392 45.7278C39.4258 46.0165 39.5702 46.2764 39.7627 46.5074C39.9553 46.7288 40.1863 46.9117 40.4559 47.0368C41.0624 47.2967 41.7459 47.2967 42.3428 47.0368C42.6123 46.9117 42.8434 46.7288 43.0359 46.5074C43.2285 46.2764 43.3729 46.0069 43.4595 45.7278C43.652 45.1118 43.652 44.4476 43.4595 43.822C43.3729 43.5332 43.2285 43.2637 43.0359 43.0327C42.8434 42.8113 42.6123 42.6285 42.3428 42.5033C41.7459 42.2435 41.0624 42.2435 40.4559 42.5033ZM42.1214 42.9557C42.3235 43.0616 42.4968 43.2156 42.6316 43.4081C42.7664 43.6006 42.8723 43.8124 42.9396 44.0434C43.0744 44.515 43.0744 45.0155 42.9396 45.4871C42.8723 45.7182 42.7664 45.9299 42.6316 46.1224C42.4968 46.3053 42.3235 46.4593 42.1214 46.5748C41.6689 46.8058 41.1394 46.8058 40.6966 46.5748C40.4944 46.4593 40.3211 46.3053 40.1863 46.1224C40.0516 45.9299 39.9457 45.7182 39.8783 45.4871C39.7435 45.0155 39.7435 44.515 39.8783 44.0434C39.9457 43.8124 40.0516 43.6006 40.1863 43.4081C40.3211 43.2252 40.4944 43.0712 40.6966 42.9557C41.1394 42.7343 41.6689 42.7343 42.1214 42.9557ZM48.3596 40.6457H47.782V43.3215H47.7628C47.705 43.1578 47.6183 43.0038 47.5124 42.8787C47.4066 42.7536 47.2718 42.6477 47.1274 42.5611C46.983 42.4745 46.8193 42.4071 46.6557 42.3686C46.492 42.3205 46.3187 42.3012 46.1551 42.3012C45.8374 42.2916 45.5197 42.359 45.2212 42.5033C44.9709 42.6381 44.7495 42.8306 44.5859 43.0712C44.4029 43.3022 44.2778 43.5717 44.2008 43.8509C44.0275 44.4669 44.0275 45.1214 44.2008 45.747C44.2778 46.0262 44.4126 46.2957 44.5859 46.5267C44.7591 46.748 44.9806 46.9309 45.2405 47.056C45.5293 47.1908 45.847 47.2582 46.1743 47.2486C46.3476 47.2486 46.5209 47.2197 46.6845 47.1716C46.8578 47.1234 47.0118 47.0561 47.1659 46.9694C47.3103 46.8828 47.4451 46.7769 47.5702 46.6518C47.6857 46.5267 47.782 46.3823 47.8398 46.2283H47.859V47.1042H48.3789L48.3596 40.6457ZM44.711 44.0434C44.7591 43.822 44.8554 43.6006 44.9806 43.4081C45.1057 43.2252 45.2597 43.0712 45.4523 42.9557C45.6641 42.8306 45.9048 42.7728 46.1454 42.7825C46.415 42.7728 46.6749 42.8306 46.906 42.9557C47.1081 43.0616 47.2814 43.2252 47.4162 43.4081C47.551 43.6006 47.6472 43.8124 47.705 44.0434C47.8205 44.515 47.8205 45.0155 47.705 45.4871C47.6472 45.7182 47.551 45.9299 47.4162 46.1224C47.1274 46.5363 46.6557 46.7769 46.1454 46.7577C45.9048 46.7673 45.6641 46.6999 45.4523 46.5844C45.2597 46.4689 45.0961 46.3149 44.9806 46.132C44.8554 45.9395 44.7591 45.7181 44.711 45.4968C44.5955 45.0155 44.5955 44.515 44.711 44.0434ZM51.2958 47.1138H51.8735V44.3899C51.8735 44.1781 51.9023 43.9567 51.9697 43.7546C52.0275 43.5717 52.1334 43.3985 52.2585 43.2541C52.3837 43.1097 52.5474 42.9942 52.7206 42.9172C52.9132 42.8306 53.125 42.7921 53.3368 42.7921C53.5389 42.7825 53.7315 42.821 53.9144 42.898C54.0588 42.9653 54.1839 43.0616 54.2802 43.1867C54.3765 43.3215 54.4342 43.4755 54.4727 43.6391C54.5112 43.822 54.5305 44.0049 54.5305 44.1974V47.1138H55.1081V44.1107C55.0985 43.8509 55.06 43.6006 54.9926 43.3504C54.906 42.9172 54.5979 42.5707 54.1839 42.4263C53.924 42.3397 53.6448 42.2916 53.3656 42.3012C53.048 42.3012 52.7303 42.3878 52.4511 42.5515C52.1815 42.7055 51.9794 42.9461 51.8735 43.2349H51.8638V40.6264H51.2862L51.2958 47.1138ZM60.0371 42.3782H59.4595V43.3407H59.4403C59.3825 43.1771 59.2958 43.0327 59.1803 42.898C59.0744 42.7728 58.9396 42.667 58.7952 42.5803C58.6508 42.4937 58.4872 42.4263 58.3235 42.3878C58.1599 42.3397 57.9866 42.3205 57.8133 42.3205C57.4956 42.3108 57.1779 42.3782 56.8891 42.5226C56.6292 42.6477 56.4078 42.8306 56.2345 43.0616C56.0516 43.2926 55.9264 43.5621 55.8494 43.8412C55.6761 44.4573 55.6761 45.1118 55.8494 45.7374C55.9264 46.0165 56.0612 46.286 56.2345 46.517C56.4078 46.7384 56.6388 46.9213 56.8891 47.0464C57.1779 47.1812 57.4956 47.2486 57.8133 47.2389C57.9866 47.2389 58.1599 47.2101 58.3235 47.1619C58.4968 47.1138 58.6508 47.0464 58.8049 46.9598C58.9493 46.8732 59.084 46.7673 59.2092 46.6422C59.3247 46.517 59.421 46.3727 59.4788 46.2187H59.498V47.1042H60.0179L60.0371 42.3782ZM56.3885 44.0626C56.4366 43.8412 56.5329 43.6199 56.6581 43.4274C56.7832 43.2445 56.9372 43.0808 57.1298 42.975C57.3416 42.8498 57.5822 42.7921 57.8229 42.8017C58.0925 42.7921 58.3524 42.8498 58.5834 42.975C58.7856 43.0808 58.9589 43.2445 59.0937 43.4274C59.2285 43.6199 59.3247 43.8316 59.3825 44.0626C59.498 44.5343 59.498 45.0348 59.3825 45.5064C59.3247 45.7374 59.2285 45.9492 59.0937 46.1417C58.9589 46.3245 58.7856 46.4882 58.5834 46.594C58.3524 46.7192 58.0829 46.7769 57.8229 46.7673C57.5822 46.7769 57.3416 46.7095 57.1298 46.594C56.9372 46.4785 56.7736 46.3245 56.6581 46.1417C56.5329 45.9492 56.4366 45.7278 56.3885 45.5064C56.273 45.0348 56.273 44.5343 56.3885 44.0626ZM61.0768 41.5697H61.6544V40.6553H61.0768V41.5697ZM61.0768 47.1138H61.6544V42.4456H61.0768V47.1138ZM62.6942 47.1138H63.2718V44.6209C63.2718 44.3899 63.3103 44.1589 63.3969 43.9471C63.4739 43.745 63.5991 43.5621 63.7531 43.3985C63.9072 43.2445 64.0997 43.129 64.3019 43.052C64.5233 42.9653 64.764 42.9365 65.0046 42.9461V42.3686C64.6195 42.3397 64.2345 42.4456 63.9168 42.6573C63.6087 42.8691 63.368 43.1771 63.2429 43.5236H63.2236V42.4263H62.7038L62.6942 47.1138ZM71.0022 40.6649H70.4246V43.3407H70.4053C70.3476 43.1771 70.2609 43.0327 70.1454 42.898C70.0395 42.7728 69.9048 42.667 69.7603 42.5803C69.6159 42.4937 69.4523 42.4263 69.2886 42.3878C69.125 42.3397 68.9517 42.3205 68.7784 42.3205C68.4607 42.3108 68.143 42.3782 67.8542 42.5226C67.5943 42.6477 67.3729 42.8306 67.1996 43.0616C67.0167 43.2926 66.8915 43.5621 66.8145 43.8412C66.6412 44.4573 66.6412 45.1118 66.8145 45.7374C66.8915 46.0165 67.0263 46.286 67.1996 46.517C67.3729 46.7384 67.6039 46.9213 67.8542 47.0464C68.143 47.1812 68.4607 47.2486 68.7784 47.2389C68.9517 47.2389 69.125 47.2101 69.2886 47.1619C69.4619 47.1138 69.6159 47.0464 69.77 46.9598C69.9144 46.8732 70.0492 46.7673 70.1743 46.6422C70.2898 46.517 70.3861 46.3823 70.4439 46.2187H70.4631V47.1042H70.983L71.0022 40.6649ZM67.3536 44.0626C67.4017 43.8412 67.498 43.6199 67.6232 43.4274C67.7483 43.2445 67.912 43.0905 68.0949 42.975C68.3067 42.8498 68.5473 42.7921 68.788 42.8017C69.0576 42.7921 69.3175 42.8498 69.5486 42.975C69.7507 43.0808 69.924 43.2445 70.0588 43.4274C70.1936 43.6199 70.2898 43.8316 70.3476 44.0626C70.4631 44.5343 70.4631 45.0348 70.3476 45.5064C70.2898 45.7374 70.1936 45.9492 70.0588 46.1417C69.924 46.3245 69.7507 46.4882 69.5486 46.594C69.3175 46.7192 69.048 46.7769 68.788 46.7673C68.5473 46.7769 68.3067 46.7095 68.0949 46.594C67.9023 46.4785 67.7483 46.3245 67.6232 46.1417C67.498 45.9492 67.4114 45.7278 67.3536 45.5064C67.2381 45.0348 67.2381 44.5343 67.3536 44.0626ZM75.9601 42.3782H75.3825V43.3407H75.3632C75.3055 43.1771 75.2188 43.0231 75.1033 42.898C74.9974 42.7728 74.8626 42.667 74.7182 42.5803C74.5738 42.4937 74.4102 42.4263 74.2465 42.3878C74.0828 42.3397 73.9096 42.3205 73.7363 42.3205C73.4186 42.3108 73.1009 42.3782 72.8121 42.5226C72.5618 42.6573 72.35 42.8402 72.1767 43.0712C71.9938 43.3022 71.8687 43.5717 71.782 43.8509C71.6183 44.4765 71.6183 45.1214 71.782 45.747C71.859 46.0262 71.9938 46.2957 72.1767 46.5267C72.35 46.748 72.5714 46.9309 72.8313 47.056C73.1201 47.1908 73.4378 47.2582 73.7555 47.2486C73.9288 47.2486 74.1021 47.2197 74.2658 47.1716C74.439 47.1234 74.5931 47.0561 74.7471 46.9694C74.8915 46.8828 75.0263 46.7769 75.1514 46.6518C75.267 46.5267 75.3536 46.3823 75.421 46.2283H75.4402V47.1042H75.9601V42.3782ZM72.3211 44.0626C72.3692 43.8412 72.4655 43.6199 72.5907 43.4274C72.7158 43.2445 72.8699 43.0808 73.0624 42.975C73.2742 42.8498 73.5149 42.7921 73.7555 42.8017C74.0251 42.7921 74.285 42.8498 74.5161 42.975C74.7182 43.0808 74.8915 43.2445 75.0263 43.4274C75.1611 43.6199 75.2573 43.8316 75.3151 44.0626C75.4306 44.5343 75.4306 45.0348 75.3151 45.5064C75.2573 45.7374 75.1611 45.9492 75.0263 46.1417C74.8915 46.3245 74.7182 46.4882 74.5161 46.594C74.285 46.7192 74.0155 46.7769 73.7555 46.7673C73.5149 46.7769 73.2742 46.7095 73.0624 46.594C72.8699 46.4785 72.7062 46.3245 72.5907 46.1417C72.4655 45.9492 72.3692 45.7278 72.3211 45.5064C72.196 45.0348 72.196 44.5343 72.3211 44.0626ZM78.3957 47.0946L78.1936 47.6143C78.1454 47.7202 78.1069 47.8261 78.0684 47.9031C78.0299 47.9897 77.9818 48.0667 77.9144 48.1341C77.8566 48.2015 77.7796 48.2496 77.693 48.2881C77.5967 48.3266 77.4812 48.3458 77.3753 48.3362C77.3079 48.3362 77.2501 48.3362 77.1827 48.3362L76.9902 48.3073V48.7886C77.048 48.8078 77.0961 48.8175 77.1538 48.8271C77.2212 48.8271 77.3079 48.8271 77.4234 48.8271C77.5678 48.8271 77.7122 48.8175 77.8566 48.779C77.9721 48.7501 78.0877 48.6923 78.1743 48.6153C78.2802 48.5287 78.3668 48.4228 78.4246 48.3073C78.5112 48.1533 78.5883 47.9897 78.646 47.8164L80.6677 42.4456H80.0901L78.646 46.4208L77.1153 42.4456H76.5088L78.3957 47.0946Z" fill="#333333"/>
</svg>
