<svg width="81" height="32" viewBox="0 0 81 32" fill="none" xmlns="http://www.w3.org/2000/svg">
<g clipPath="url(#clip0_6036_15073)">
<path fill-rule="evenodd" clip-rule="evenodd" d="M17.5775 31.6243C9.42264 31.6243 5.18955 29.8301 2.65084 25.6015C1.22205 23.1709 0.715637 18.8017 0.715637 15.9987C0.715637 13.1958 1.22205 8.83322 2.65084 6.39691C5.18955 2.16828 9.42264 0.375 17.5775 0.375C25.7325 0.375 29.9693 2.16828 32.5033 6.39691C33.9311 8.83322 34.4376 13.1958 34.4376 15.9987C34.4376 18.8017 33.9311 23.1661 32.5033 25.6015C29.9693 29.8301 25.7315 31.6243 17.5775 31.6243ZM21.6755 24.8312C20.7531 24.8312 19.4166 24.417 18.7731 22.9458L14.72 13.154C13.8433 10.9475 15.55 8.87976 17.53 8.87976C18.4514 8.87976 19.7869 9.29484 20.4313 10.7652L24.4855 20.555C25.3612 22.7615 23.6564 24.8302 21.6755 24.8302V24.8312ZM13.5215 24.8312C12.601 24.8312 11.2646 24.417 10.6192 22.9458L6.56505 13.154C5.69025 10.9475 7.39415 8.87976 9.37505 8.87976C10.2974 8.87976 11.6329 9.29484 12.2783 10.7652L16.3315 20.555C17.2073 22.7615 15.5034 24.8302 13.5215 24.8302V24.8312ZM26.7653 17.4339C25.8438 17.4339 24.5074 17.0188 23.8629 15.5476L22.8739 13.1549C21.9982 10.9485 23.7011 8.88071 25.682 8.88071C26.6034 8.88071 27.9399 9.29579 28.5843 10.7661L29.5762 13.1587C30.4529 15.3633 28.7462 17.433 26.7653 17.433V17.4339Z" fill="#333333"/>
<path d="M40.5697 10.4203L41.8567 5.44032L43.1436 10.4203H44.7828L46.8522 2.92897H45.1883L44.008 7.62112C43.9897 7.71732 43.9662 7.81245 43.9375 7.90607V7.92127C43.9375 7.90987 43.9318 7.89847 43.9299 7.88802C43.8999 7.79115 43.8761 7.69249 43.8585 7.59263L42.6496 2.92517H41.0676L39.8567 7.60307C39.8389 7.70319 39.815 7.80215 39.7853 7.89942C39.7836 7.90777 39.7813 7.91601 39.7787 7.92412C39.7776 7.91674 39.776 7.90945 39.7739 7.90227C39.7442 7.80566 39.7203 7.70733 39.7025 7.60782L38.525 2.92897H36.8602L38.9305 10.4203H40.5697Z" fill="#333333"/>
<path d="M47.6318 10.4206L48.3619 8.51621H51.0377L51.7678 10.4206H53.4622L50.4523 2.99391L50.4266 2.92932H48.9778L45.9422 10.4206H47.6318ZM49.5251 5.47201L49.6993 4.9686L49.7945 5.24215L50.4923 7.08292H48.9102L49.5251 5.47201Z" fill="#333333"/>
<path d="M59.861 5.09303C59.861 3.75852 58.8263 2.92932 57.1605 2.92932H53.9383V10.4206H55.5203V7.46475H56.5275L58.2171 10.4206H60.0257L58.2371 7.29093C59.3146 6.86351 59.861 6.12454 59.861 5.09303ZM58.278 5.19656C58.278 5.76646 57.8972 6.05141 57.1605 6.05141H55.5203V4.34172H57.1643C57.902 4.34172 58.278 4.62951 58.278 5.19656Z" fill="#333333"/>
<path d="M62.4169 5.50431L62.434 5.53565C62.4662 5.59695 62.5022 5.65627 62.5416 5.71327L65.5876 10.376L65.6181 10.4225H67.1744V2.92932H65.6352V7.81714L65.6162 7.78389C65.5839 7.72259 65.548 7.66328 65.5086 7.60627L62.4321 2.92932H60.8757V10.4206H62.4159L62.4169 5.50431Z" fill="#333333"/>
<path d="M73.3393 7.26719V5.8339H69.9705V4.36261H73.6315V2.92932H68.3875V10.4206H73.6629V8.98828H69.9705V7.26719H73.3393Z" fill="#333333"/>
<path d="M78.9246 7.29093C80.0021 6.86351 80.5428 6.12454 80.5428 5.09303C80.5428 3.75852 79.5081 2.92932 77.8432 2.92932H74.6258V10.4206H76.2078V7.46475H77.214L78.9046 10.4206H80.7132L78.9246 7.29093ZM78.9617 5.19656C78.9617 5.76646 78.5857 6.05141 77.8442 6.05141H76.2078V4.34172H77.848C78.5895 4.34172 78.9617 4.62951 78.9617 5.19656Z" fill="#333333"/>
<path d="M42.0995 17.7956L39.8416 12.1802H38.2195V19.6724H39.7607V15.7762L39.9187 16.2682L41.3741 19.6724H42.8239L44.2831 16.2597L44.4373 15.7762V19.6724H45.9785V12.1802H44.3564L42.0995 17.7956Z" fill="#333333"/>
<path d="M47.1102 12.1802V16.8115C47.1102 18.6381 48.3257 19.8177 50.2067 19.8177C52.0876 19.8177 53.3032 18.6381 53.3032 16.8115V12.1802H51.7212V16.6757C51.7212 17.7348 51.1691 18.3427 50.2067 18.3427C49.2443 18.3427 48.6922 17.7348 48.6922 16.6757V12.1802H47.1102Z" fill="#333333"/>
<path d="M57.1822 18.4052C56.198 18.4052 55.643 17.8799 55.4365 16.7506L55.4117 16.6157L54.0086 17.3281L54.0257 17.405C54.3494 18.938 55.504 19.8176 57.1927 19.8176C59.048 19.8176 60.0179 18.6407 60.0179 17.4772C60.0179 16.2168 59.2564 15.4958 57.5478 15.1387C56.3388 14.8908 55.8667 14.6011 55.8667 14.1043C55.8667 13.6076 56.4693 13.4471 56.9852 13.4471C57.7886 13.4471 58.335 13.8574 58.6091 14.6685L58.6491 14.7863L59.9208 14.0569L59.8913 13.9761C59.422 12.6872 58.4559 12.0347 57.0204 12.0347C55.4241 12.0347 54.3551 12.8791 54.3551 14.1357C54.3551 15.3049 55.2185 16.1379 56.7215 16.4219C57.978 16.6774 58.4444 16.9776 58.4444 17.5294C58.4359 18.0613 57.9437 18.4052 57.1822 18.4052Z" fill="#333333"/>
<path d="M62.4735 12.1802H60.8914V19.6715H62.4735V12.1802Z" fill="#333333"/>
<path d="M70.4006 17.8153L70.4549 17.7327L69.205 16.837L69.1498 16.9396C68.6482 17.8704 67.9343 18.3425 67.029 18.3425C65.7278 18.3425 64.7844 17.3262 64.7844 15.9261C64.7844 14.5261 65.7278 13.5098 67.029 13.5098C67.9619 13.5098 68.6092 13.9476 69.0642 14.888L69.1175 14.9981L70.4006 14.0758L70.3664 13.9999C69.8133 12.7651 68.5816 12.0347 67.0709 12.0347C64.8168 12.0347 63.1805 13.6712 63.1805 15.929C63.1805 18.2199 64.7587 19.8233 67.0185 19.8233C68.7281 19.8176 69.5534 19.0862 70.4006 17.8153Z" fill="#333333"/>
<path d="M40.8349 26.1545H43.169C43.0614 26.6655 42.6749 27.5944 41.289 27.5944C40.0163 27.5944 39.1282 26.6009 39.1282 25.1781C39.1282 23.7552 40.0801 22.699 41.3937 22.699C42.3351 22.699 43.0576 23.1369 43.4822 23.9651L43.5374 24.0715L44.7377 23.2005L44.6977 23.1226C44.1104 21.9733 42.8834 21.2866 41.4137 21.2866C39.1967 21.2866 37.5242 22.9593 37.5242 25.1809C37.5242 27.4026 39.1253 29.0752 41.2471 29.0752C42.1771 29.0752 42.9272 28.7257 43.4308 28.0617L43.6849 28.9299H44.772V24.8257H40.8349V26.1545Z" fill="#333333"/>
<path d="M51.7389 23.5947C51.7389 22.2602 50.7041 21.431 49.0383 21.431H45.8133V28.9233H47.3963V25.9665H48.4072L50.0968 28.9233H51.9054L50.114 25.7888C51.1896 25.3652 51.7389 24.6272 51.7389 23.5947ZM50.1568 23.6992C50.1568 24.2691 49.776 24.5541 49.0383 24.5541H47.3963V22.8444H49.0355C49.777 22.8434 50.1539 23.1312 50.1539 23.6992H50.1568Z" fill="#333333"/>
<path d="M56.1047 21.2865C53.9049 21.2865 52.2467 22.9591 52.2467 25.1808C52.2467 27.4024 53.9049 29.0751 56.1047 29.0751C58.3046 29.0751 59.9628 27.4024 59.9628 25.1808C59.9628 22.9591 58.3046 21.2865 56.1047 21.2865ZM58.3598 25.1808C58.3598 26.6264 57.4536 27.5972 56.1047 27.5972C54.7559 27.5972 53.8497 26.6264 53.8497 25.1808C53.8497 23.7352 54.7559 22.7644 56.1047 22.7644C57.4536 22.7644 58.3598 23.7323 58.3598 25.1779V25.1808Z" fill="#333333"/>
<path d="M65.4008 25.9247C65.4008 26.9847 64.8487 27.5916 63.8864 27.5916C62.924 27.5916 62.3719 26.9847 62.3719 25.9247V21.431H60.7899V26.0624C60.7899 27.888 62.0045 29.0686 63.8864 29.0686C65.7683 29.0686 66.9829 27.888 66.9829 26.0624V21.431H65.4008V25.9247Z" fill="#333333"/>
<path d="M71.5401 21.431H68.118V28.9233H69.7V26.3834H71.5401C73.2896 26.3834 74.3758 25.4336 74.3758 23.9072C74.3758 22.3809 73.2877 21.431 71.5401 21.431ZM72.7937 23.9072C72.7937 24.5892 72.3454 24.952 71.4982 24.952H69.7V22.8624H71.4963C72.3435 22.8643 72.7918 23.2253 72.7918 23.9072H72.7937Z" fill="#333333"/>
</g>
<defs>
<clipPath id="clip0_6036_15073">
<rect width="80" height="31.25" fill="white" transform="translate(0.71582 0.375)"/>
</clipPath>
</defs>
</svg>
