<svg width="81" height="24" viewBox="0 0 81 24" fill="none" xmlns="http://www.w3.org/2000/svg">
<g clipPath="url(#clip0_6036_15098)">
<path fill-rule="evenodd" clip-rule="evenodd" d="M56.0126 17.3399C54.8126 18.6245 53.2715 19.277 51.433 19.277C49.5937 19.277 48.0526 18.6245 46.8533 17.3399C45.7079 16.1162 45.0497 14.1594 45.0497 11.9733C45.0497 9.83938 45.7152 7.90946 46.873 6.67705C48.0846 5.39237 49.6184 4.73696 51.4315 4.73188C53.2475 4.73696 54.7813 5.39237 55.9922 6.67705C57.1515 7.90946 57.8155 9.83938 57.8155 11.9733C57.8155 14.1594 57.1581 16.1162 56.0126 17.3399ZM39.9108 11.9733C39.9108 12.072 39.9152 12.1692 39.9181 12.2665C38.0781 10.5949 35.4177 9.97293 33.7922 9.6485C30.785 9.01559 28.4875 8.4364 28.4875 6.29963C28.4875 4.79213 29.8402 3.69543 32.4388 3.88342C34.8133 4.05543 35.8133 5.50414 36.0875 6.90204C36.1268 7.1314 36.233 7.29834 36.4948 7.30051L40.7653 7.3368C40.7857 7.3368 40.8032 7.33463 40.8213 7.33317C40.2192 8.73471 39.9108 10.2952 39.9108 11.9733ZM32.6475 19.8134C30.5821 19.8134 28.3064 19.0811 27.7821 16.2475C27.7377 15.9768 27.6097 15.865 27.4017 15.8592L23.273 15.8041V8.52059C23.8155 10.6552 25.6126 12.1329 29.4992 13.0061C32.1006 13.6274 36.6133 14.0222 36.6133 16.6874C36.6133 18.5454 35.2424 19.857 32.6475 19.8134ZM12.0832 19.2799C8.75224 19.2799 5.70061 16.6634 5.70061 11.9762C5.70061 8.2985 7.98861 4.73479 12.105 4.73479C13.8882 4.73479 18.4097 5.34446 18.4097 11.9762C18.4097 18.6253 13.689 19.2799 12.0824 19.2799H12.0832ZM62.8315 10.187C63.7792 11.4485 65.4897 12.3826 68.2686 13.0068C70.8693 13.6281 75.3828 14.0229 75.3828 16.6881C75.3828 18.5462 74.0112 19.8577 71.417 19.8141C69.3522 19.8141 67.0752 19.0818 66.5515 16.2483C66.5079 15.9775 66.3799 15.8658 66.1712 15.8599L62.3457 15.8091C62.7493 14.621 62.9552 13.3341 62.9552 11.974C62.955 11.3762 62.9136 10.7792 62.8315 10.187ZM71.1348 23.523C75.7159 23.523 81.1152 21.821 80.6926 16.3005C80.2257 11.3999 75.1159 10.1587 72.5617 9.64922C69.5537 9.01632 67.2562 8.43713 67.2562 6.30035C67.2562 4.79285 68.609 3.69616 71.2083 3.88414C73.5828 4.05616 74.5828 5.50487 74.857 6.90277C74.8962 7.13213 75.0032 7.29906 75.2642 7.30124L79.5348 7.33753C79.8599 7.33971 79.961 7.17132 79.9202 6.94051C79.0839 1.83229 74.8075 0.387207 70.8722 0.387207C66.9428 0.387207 62.2082 1.48898 61.8722 6.36713C61.8606 6.55584 61.8562 6.74164 61.8562 6.92382C61.2308 5.62608 60.329 4.4343 59.1668 3.37898C57.0213 1.44834 54.3464 0.414062 51.4293 0.388659H51.3326C49.9392 0.388659 48.5755 0.644868 47.2788 1.15293C45.9607 1.67323 44.7479 2.42741 43.6992 3.37898C42.5988 4.37769 41.7297 5.49834 41.1086 6.71551C40.1835 1.79237 35.9784 0.387207 32.1021 0.387207C28.4948 0.387207 24.2082 1.31842 23.273 5.25011V1.34745C23.2728 1.24748 23.2329 1.15167 23.1619 1.08104C23.091 1.01042 22.995 0.970755 22.8948 0.970755H18.873C18.7728 0.970948 18.6768 1.0108 18.606 1.08156C18.5353 1.15231 18.4955 1.2482 18.4955 1.34817V2.40059C18.4955 2.57769 18.377 2.63938 18.2322 2.53632C16.8017 1.50059 14.6853 0.389384 12.1384 0.389384C10.7072 0.389384 9.34061 0.640513 8.07588 1.13551C6.81043 1.63196 5.60752 2.38753 4.50352 3.38188C3.24679 4.52285 2.2897 5.8235 1.66206 7.24753C1.03443 8.67156 0.715881 10.2625 0.715881 11.9754C0.715881 13.5744 0.998063 15.0739 1.5537 16.429C2.10934 17.7841 2.95515 19.0375 4.06861 20.1553C5.18134 21.273 6.42643 22.1222 7.76679 22.6811C9.10715 23.2378 10.5842 23.5201 12.1595 23.5201C14.8664 23.5201 16.8977 22.3697 18.2286 21.3238C18.3755 21.212 18.4955 21.2723 18.4955 21.4552V22.5606C18.4955 22.7682 18.6657 22.938 18.8737 22.938H22.8955C22.9956 22.9376 23.0915 22.8977 23.1623 22.827C23.233 22.7563 23.2728 22.6605 23.273 22.5606V18.8372C25.169 23.2864 30.0002 23.5223 32.3653 23.5223C36.3188 23.5223 40.8781 22.2521 41.7828 18.356C42.2177 19.0008 42.7138 19.6024 43.2642 20.1524C45.4199 22.3174 48.2446 23.4816 51.4366 23.5165H51.5675C53.0832 23.5165 54.5457 23.2262 55.9144 22.652C57.2963 22.0689 58.5493 21.2195 59.6017 20.1524C60.389 19.3691 61.0613 18.4787 61.5988 17.5075C63.0322 23.2436 68.5537 23.523 71.1348 23.523Z" fill="#333333"/>
</g>
<defs>
<clipPath id="clip0_6036_15098">
<rect width="80" height="23.2258" fill="white" transform="translate(0.71582 0.387085)"/>
</clipPath>
</defs>
</svg>
