<svg width="139" height="41" viewBox="0 0 139 41" fill="none" xmlns="http://www.w3.org/2000/svg">
<path fill-rule="evenodd" clip-rule="evenodd" d="M133.158 40.5878H5.12342C2.29969 40.5878 0 38.3025 0 35.5192V5.10765C0 2.31424 2.29969 0.0390625 5.12342 0.0390625H133.158C135.979 0.0390625 138.282 2.31424 138.282 5.10765V35.5192C138.282 38.3025 135.979 40.5878 133.158 40.5878Z" fill="#333333"/>
<path fill-rule="evenodd" clip-rule="evenodd" d="M133.158 0.850543C135.527 0.850543 137.465 2.76422 137.465 5.10765V35.5192C137.465 37.8626 135.539 39.7763 133.158 39.7763H5.12342C2.75505 39.7763 0.816593 37.8626 0.816593 35.5192V5.10765C0.816593 2.76422 2.74233 0.850543 5.12342 0.850543H133.158ZM133.158 0.0390625H5.12342C2.29969 0.0390625 0 2.32435 0 5.10765V35.5192C0 38.3126 2.29969 40.5878 5.12342 40.5878H133.158C135.979 40.5878 138.282 38.3126 138.282 35.5192V5.10765C138.282 2.32435 135.979 0.0390625 133.158 0.0390625Z" fill="#333333"/>
<path opacity="0.2" fill-rule="evenodd" clip-rule="evenodd" d="M27.5744 24.502L12.7714 32.8594C11.9446 33.3322 11.2069 33.2993 10.7312 32.8696L10.6523 32.9479L10.7312 33.0162C11.2069 33.4434 11.9446 33.4788 12.7714 33.0061L27.6762 24.593L27.5744 24.502Z" fill="white"/>
<path opacity="0.12" fill-rule="evenodd" clip-rule="evenodd" d="M32.6529 21.6296L27.5625 24.5014L27.6541 24.5924L32.6401 21.7762C33.355 21.3717 33.706 20.8408 33.706 20.3125C33.6628 20.7979 33.299 21.258 32.6529 21.6296Z" fill="white"/>
<path d="M33.4026 19.6807C33.4026 17.9573 34.3208 16.3353 35.851 15.423C34.9329 14.1051 33.4027 13.2941 31.7704 13.1927C30.0362 12.99 28.404 14.2065 27.4858 14.2065C26.5677 14.2065 25.2415 13.1927 23.8133 13.1927C21.8751 13.2941 20.1408 14.3078 19.2227 15.9298C17.2845 19.2752 18.7127 24.344 20.6509 27.0811C21.569 28.399 22.6912 29.9196 24.1194 29.9196C25.5476 29.8182 26.0577 29.0072 27.7919 29.0072C29.5261 29.0072 29.9342 29.9196 31.4644 29.9196C32.9946 29.9196 33.9127 28.6017 34.8308 27.1825C35.5449 26.2701 36.055 25.155 36.3611 24.0399C34.5248 23.4316 33.4026 21.6068 33.4026 19.6807Z" fill="white"/>
<path d="M30.5455 11.47C31.3616 10.4563 31.7696 9.23975 31.6676 7.92188C30.4435 8.02325 29.2193 8.6315 28.4032 9.64525C27.5871 10.5576 27.179 11.7741 27.281 13.092C28.6072 13.092 29.7294 12.4838 30.5455 11.47Z" fill="white"/>
<path d="M51.254 26.5749H46.4593L45.3372 30.0217H43.2969L47.8875 17.4512H49.9278L54.5184 30.0217H52.4781L51.254 26.5749ZM46.9694 25.0543H50.8459L48.9076 19.4787H48.8056L46.9694 25.0543Z" fill="white"/>
<path d="M64.4134 25.46C64.4134 28.2985 62.8832 30.1233 60.5368 30.1233C59.3127 30.2247 58.1905 29.515 57.6804 28.5013V33.0632H55.7422V20.8982H57.5784V22.4188C58.1905 21.405 59.3127 20.7968 60.5368 20.7968C62.7811 20.6954 64.4134 22.6215 64.4134 25.46ZM62.3731 25.46C62.3731 23.6353 61.455 22.4188 59.9248 22.4188C58.4966 22.4188 57.4764 23.6353 57.4764 25.46C57.4764 27.2848 58.4966 28.5013 59.9248 28.5013C61.455 28.5013 62.3731 27.2848 62.3731 25.46Z" fill="white"/>
<path d="M74.5149 25.46C74.5149 28.2985 72.9847 30.1233 70.6384 30.1233C69.4142 30.2247 68.2921 29.515 67.782 28.5013V33.0632H65.8438V20.8982H67.68V22.4188C68.2921 21.405 69.4142 20.7968 70.6384 20.7968C72.9847 20.6954 74.5149 22.6215 74.5149 25.46ZM72.5767 25.46C72.5767 23.6353 71.6585 22.4188 70.1283 22.4188C68.7001 22.4188 67.68 23.6353 67.68 25.46C67.68 27.2848 68.7001 28.5013 70.1283 28.5013C71.6585 28.5013 72.5767 27.2848 72.5767 25.46Z" fill="white"/>
<path d="M81.2459 26.4732C81.348 27.6897 82.5721 28.5007 84.3064 28.5007C85.9386 28.5007 87.0607 27.6897 87.0607 26.5746C87.0607 25.5608 86.3466 25.0539 84.7144 24.6484L83.0822 24.2429C80.7359 23.6347 79.7157 22.6209 79.7157 20.8976C79.7157 18.7687 81.654 17.248 84.3064 17.248C86.9587 17.248 88.795 18.7687 88.897 20.8976H86.9587C86.8567 19.681 85.8366 18.87 84.3064 18.87C82.7762 18.87 81.756 19.681 81.756 20.7962C81.756 21.7086 82.4701 22.2154 84.1023 22.6209L85.5305 22.9251C88.0809 23.5333 89.203 24.5471 89.203 26.3718C89.203 28.7034 87.2648 30.2241 84.3064 30.2241C81.45 30.2241 79.6137 28.8048 79.5117 26.4732H81.2459Z" fill="white"/>
<path d="M93.0804 18.666V20.7949H94.8146V22.3155H93.0804V27.3843C93.0804 28.1953 93.3864 28.4994 94.2026 28.4994C94.4066 28.4994 94.6106 28.4994 94.8146 28.4994V30.02C94.5086 30.1214 94.1005 30.1214 93.7945 30.1214C91.9582 30.1214 91.2442 29.4118 91.2442 27.6884V22.4169H89.918V20.8963H91.2442V18.7674H93.0804V18.666Z" fill="white"/>
<path d="M95.9375 25.4582C95.9375 22.6197 97.6717 20.7949 100.324 20.7949C102.976 20.7949 104.711 22.6197 104.711 25.4582C104.711 28.3981 102.976 30.1214 100.324 30.1214C97.5697 30.1214 95.9375 28.2967 95.9375 25.4582ZM102.772 25.4582C102.772 23.4307 101.854 22.3155 100.324 22.3155C98.7939 22.3155 97.8758 23.4307 97.8758 25.4582C97.8758 27.4857 98.7939 28.6008 100.324 28.6008C101.854 28.6008 102.772 27.3843 102.772 25.4582Z" fill="white"/>
<path d="M106.238 20.7967H108.075V22.4187C108.279 21.405 109.299 20.6954 110.319 20.7967C110.523 20.7967 110.727 20.7967 110.931 20.8981V22.6215C110.625 22.5201 110.319 22.5201 110.115 22.5201C109.095 22.5201 108.177 23.3311 108.177 24.3449C108.177 24.4462 108.177 24.5476 108.177 24.649V30.1232H106.238V20.7967Z" fill="white"/>
<path d="M119.705 27.2827C119.501 28.9047 117.767 30.1212 115.726 30.1212C113.074 30.1212 111.34 28.2965 111.34 25.458C111.34 22.6195 112.972 20.6934 115.624 20.6934C118.175 20.6934 119.807 22.4167 119.807 25.2552V25.8635H113.278V25.9649C113.176 27.2827 114.094 28.3979 115.42 28.6006C115.522 28.6006 115.624 28.6006 115.726 28.6006C116.645 28.702 117.563 28.1951 117.869 27.2827H119.705ZM113.278 24.5456H117.869C117.971 23.3291 116.951 22.3154 115.726 22.214C115.624 22.214 115.624 22.214 115.522 22.214C114.298 22.214 113.278 23.2277 113.278 24.5456Z" fill="white"/>
<path d="M46.6662 7.92169C48.1964 7.82031 49.4206 8.93544 49.5226 10.3547C49.5226 10.5574 49.5226 10.6588 49.5226 10.8616C49.5226 12.7877 48.5024 13.9028 46.6662 13.9028H44.4219V7.82031H46.6662V7.92169ZM45.442 13.1932H46.5642C47.5843 13.2946 48.5024 12.4836 48.6044 11.3684C48.6044 11.2671 48.6044 11.0643 48.6044 10.9629C48.7065 9.94919 47.9924 8.93544 46.9722 8.83406C46.8702 8.83406 46.7682 8.83406 46.5642 8.83406H45.442V13.1932Z" fill="white"/>
<path d="M50.6453 11.6722C50.5433 10.4557 51.3594 9.44194 52.5836 9.34057C53.8077 9.23919 54.8279 10.0502 54.9299 11.2667C54.9299 11.3681 54.9299 11.5708 54.9299 11.6722C55.0319 12.8887 54.2158 13.9024 52.9916 14.0038C51.7675 14.1052 50.7473 13.2942 50.6453 12.0777C50.6453 11.9763 50.6453 11.8749 50.6453 11.6722ZM54.0118 11.6722C54.0118 10.6584 53.6037 10.1516 52.7876 10.1516C51.9715 10.1516 51.5634 10.7598 51.5634 11.6722C51.5634 12.6859 51.9715 13.2942 52.7876 13.2942C53.6037 13.2942 54.0118 12.6859 54.0118 11.6722Z" fill="white"/>
<path d="M60.7448 14.0033H59.8266L58.9085 10.6579H58.8065L57.8884 14.0033H56.9703L55.7461 9.44141H56.6642L57.4803 12.8882H57.5823L58.5005 9.44141H59.4186L60.3367 12.8882H60.4387L61.2548 9.44141H62.173L60.7448 14.0033Z" fill="white"/>
<path d="M63.0898 9.44247H64.008V10.1521H64.11C64.314 9.64522 64.9261 9.34109 65.4362 9.34109C66.2523 9.23972 66.9664 9.84797 67.0684 10.7603C67.0684 10.8617 67.0684 10.9631 67.0684 11.0645V14.0043H66.1503V11.2672C66.1503 10.5576 65.8442 10.1521 65.1301 10.1521C64.518 10.1521 64.008 10.5576 64.008 11.1658C64.008 11.2672 64.008 11.2672 64.008 11.3686V14.0043H63.0898V9.44247Z" fill="white"/>
<path d="M68.3945 7.61719H69.3127V14.0038H68.3945V7.61719Z" fill="white"/>
<path d="M70.5359 11.6722C70.4339 10.4557 71.25 9.44194 72.4742 9.34057C73.6984 9.23919 74.7185 10.0502 74.8205 11.2667C74.8205 11.3681 74.8205 11.5708 74.8205 11.6722C74.9225 12.8887 74.1064 13.9024 72.8823 14.0038C71.6581 14.1052 70.6379 13.2942 70.5359 12.0777C70.5359 11.9763 70.5359 11.8749 70.5359 11.6722ZM74.0044 11.6722C74.0044 10.6584 73.5964 10.1516 72.7802 10.1516C71.9641 10.1516 71.5561 10.7598 71.5561 11.6722C71.5561 12.6859 71.9641 13.2942 72.7802 13.2942C73.4943 13.2942 74.0044 12.6859 74.0044 11.6722Z" fill="white"/>
<path d="M75.8403 12.6852C75.8403 11.8742 76.4524 11.3673 77.5745 11.3673L78.7987 11.266V10.8605C78.7987 10.3536 78.4927 10.1508 77.8806 10.1508C77.3705 10.1508 77.0645 10.3536 76.9624 10.6577H76.0443C76.1463 9.84672 76.8604 9.33984 77.8806 9.33984C79.0027 9.33984 79.7168 9.94809 79.7168 10.8605V14.0031H78.7987V13.3948H78.6967C78.3906 13.9017 77.8806 14.1045 77.2685 14.1045C76.5544 14.2058 75.8403 13.5976 75.7383 12.888C75.8403 12.7866 75.8403 12.7866 75.8403 12.6852ZM78.7987 12.2797V11.8742L77.6765 11.9756C77.0645 11.9756 76.7584 12.2797 76.7584 12.5838C76.7584 12.9893 77.1665 13.1921 77.5745 13.1921C78.1866 13.3948 78.6967 12.9893 78.7987 12.2797C78.7987 12.3811 78.7987 12.3811 78.7987 12.2797Z" fill="white"/>
<path d="M80.8398 11.6722C80.8398 10.2529 81.5539 9.34056 82.7781 9.34056C83.3902 9.34056 83.9003 9.64469 84.2063 10.1516H84.3083V7.61719H85.2264V14.0038H84.3083V13.2942H84.2063C83.9003 13.8011 83.3902 14.1052 82.7781 14.1052C81.6559 14.1052 80.8398 13.1928 80.8398 11.6722ZM81.86 11.6722C81.86 12.6859 82.37 13.1928 83.0841 13.1928C83.7982 13.1928 84.3083 12.5846 84.3083 11.6722C84.3083 10.7598 83.7982 10.1516 83.0841 10.1516C82.268 10.1516 81.86 10.7598 81.86 11.6722Z" fill="white"/>
<path d="M88.8992 11.6722C88.7972 10.4557 89.6133 9.44194 90.8375 9.34057C92.0617 9.23919 93.0818 10.0502 93.1838 11.2667C93.1838 11.3681 93.1838 11.5708 93.1838 11.6722C93.2858 12.8887 92.4697 13.9024 91.2455 14.0038C90.0214 14.1052 89.0012 13.2942 88.8992 12.0777C88.8992 11.9763 88.8992 11.8749 88.8992 11.6722ZM92.3677 11.6722C92.3677 10.6584 91.9596 10.1516 91.1435 10.1516C90.3274 10.1516 89.9194 10.7598 89.9194 11.6722C89.9194 12.6859 90.3274 13.2942 91.1435 13.2942C91.8576 13.2942 92.3677 12.6859 92.3677 11.6722Z" fill="white"/>
<path d="M94.5117 9.44247H95.4298V10.1521H95.5319C95.7359 9.64522 96.348 9.34109 96.858 9.34109C97.6741 9.23972 98.3882 9.84797 98.4903 10.7603C98.4903 10.8617 98.4903 10.9631 98.4903 11.0645V14.0043H97.5721V11.2672C97.5721 10.5576 97.2661 10.1521 96.552 10.1521C95.9399 10.1521 95.4298 10.5576 95.4298 11.1658C95.4298 11.2672 95.4298 11.2672 95.4298 11.3686V14.0043H94.5117V9.44247Z" fill="white"/>
<path d="M103.488 8.32617V9.4413H104.508V10.2523H103.488V12.5839C103.488 13.0908 103.692 13.2936 104.1 13.2936C104.202 13.2936 104.304 13.2936 104.406 13.2936V14.0032C104.202 14.0032 104.1 14.0032 103.896 14.0032C102.876 14.0032 102.468 13.6991 102.468 12.7867V10.2523H101.754V9.54267H102.468V8.32617H103.488Z" fill="white"/>
<path d="M105.73 7.61719H106.649V10.1516H106.751C106.955 9.64469 107.567 9.23919 108.179 9.34056C108.995 9.34056 109.709 9.94881 109.811 10.7598C109.811 10.8612 109.811 10.9626 109.811 11.0639V14.0038H108.893V11.2667C108.893 10.5571 108.587 10.1516 107.873 10.1516C107.261 10.1516 106.751 10.5571 106.751 11.1653C106.751 11.2667 106.751 11.2667 106.751 11.3681V14.0038H105.832L105.73 7.61719Z" fill="white"/>
<path d="M115.015 12.7868C114.811 13.5978 113.892 14.206 112.974 14.1047C111.852 14.1047 110.832 13.1923 110.832 12.0772C110.832 11.9758 110.832 11.8744 110.832 11.773C110.628 10.6579 111.444 9.54278 112.668 9.44141C112.77 9.44141 112.872 9.44141 112.974 9.44141C114.3 9.44141 115.015 10.3538 115.015 11.773V12.0772H111.75C111.648 12.7868 112.158 13.2937 112.872 13.395H112.974C113.382 13.4964 113.892 13.1923 114.096 12.8882L115.015 12.7868ZM111.75 11.2662H114.096C114.096 10.6579 113.688 10.151 113.076 10.0497H112.974C112.362 10.151 111.75 10.6579 111.75 11.2662Z" fill="white"/>
</svg>
