<svg width="56" height="56" viewBox="0 0 56 56" fill="none" xmlns="http://www.w3.org/2000/svg">
<g clip-path="url(#clip0_3048_35349)">
<path d="M1.13945 42.2367L20.7358 8.32585C21.6003 6.76257 22.8568 5.45116 24.3816 4.52052C25.4857 3.86778 26.7448 3.52344 28.0275 3.52344C29.3101 3.52344 30.5692 3.86778 31.6733 4.52052C33.1891 5.45811 34.4346 6.77431 35.2872 8.33953L35.3921 8.54005L54.5691 41.8402C55.4675 43.3311 55.9403 45.0396 55.9363 46.7803C55.9412 47.9555 55.6696 49.1155 55.1434 50.1664C54.5372 51.2994 53.6326 52.245 52.5275 52.9007C50.9579 53.8039 49.1643 54.2432 47.3549 54.1677H8.06653C7.97083 54.1677 7.87057 54.1677 7.77486 54.1677C6.54253 54.1603 5.32597 53.8899 4.2065 53.3747C2.97092 52.8086 1.92039 51.905 1.1759 50.7679C0.428791 49.6056 0.0215342 48.2575 0.00012316 46.876C-0.00746452 45.3569 0.335641 43.8566 1.00273 42.4919C1.0483 42.4007 1.09387 42.3096 1.144 42.223L1.13945 42.2367Z" fill="#ED1C24"/>
<path fill-rule="evenodd" clip-rule="evenodd" d="M4.14176 43.9583L23.7381 10.0612C26.117 5.98698 29.8859 5.86849 32.3104 10.0612L51.5968 43.5527C53.4744 46.6471 52.6951 50.7988 47.354 50.7168H8.06559C4.45622 50.7988 2.27783 47.9049 4.14176 43.9583Z" fill="#ED1C24"/>
<path d="M26.228 41.394C26.5706 41.0527 27.005 40.8185 27.4784 40.7198C27.9517 40.621 28.4436 40.6621 28.894 40.838C29.2365 40.9684 29.5473 41.1704 29.8055 41.4305C30.237 41.8614 30.4963 42.4351 30.5346 43.0437C30.5518 43.2571 30.5395 43.4718 30.4982 43.6818C30.4622 43.893 30.3978 44.0984 30.3068 44.2924C30.1029 44.7463 29.7689 45.1294 29.3469 45.3931C28.925 45.6568 28.4343 45.7892 27.937 45.7736C27.5806 45.7655 27.2298 45.6832 26.907 45.532C26.3266 45.2672 25.8688 44.7914 25.6264 44.2013C25.554 44.0086 25.5035 43.8083 25.476 43.6043C25.4513 43.4061 25.4513 43.2055 25.476 43.0073C25.5075 42.6909 25.5938 42.3825 25.7312 42.0958C25.8521 41.8247 26.0292 41.5824 26.2508 41.3849L26.228 41.394ZM29.9285 36.741C29.8419 38.9194 26.1551 38.9194 26.073 36.741C25.6993 33.0086 24.7423 24.1492 24.7742 20.6446C24.8061 19.5646 25.6857 18.922 26.8478 18.6805C27.2194 18.6022 27.5983 18.564 27.978 18.5665C28.3606 18.5663 28.7423 18.6044 29.1173 18.6805C30.2977 18.9357 31.2273 19.5919 31.2273 20.6993V20.8178L29.9331 36.7683L29.9285 36.741Z" fill="white"/>
</g>
<defs>
<clipPath id="clip0_3048_35349">
<rect width="56" height="50.6953" fill="white" transform="translate(0 3.5)"/>
</clipPath>
</defs>
</svg>
