<svg width="286px" height="33px" viewBox="0 0 286 33" fill="none" xmlns="http://www.w3.org/2000/svg" transform="rotate(0) scale(1, 1)">
<path d="M52.4131 13.3608C52.0645 12.7002 51.5599 12.2001 50.8993 11.8603C50.2571 11.5017 49.4956 11.3224 48.6149 11.3224C47.0919 11.3224 45.8717 11.8415 44.9543 12.8795C44.0368 13.8987 43.5781 15.2671 43.5781 16.9846C43.5781 18.8153 44.0552 20.2498 45.0093 21.2878C45.9818 22.307 47.3121 22.8166 49.0002 22.8166C50.1562 22.8166 51.1287 22.5146 51.9177 21.9107C52.725 21.3067 53.3122 20.4385 53.6792 19.3061H47.7066V15.7389H57.9453V20.2403C57.5967 21.4483 57.0003 22.5712 56.1563 23.6093C55.3306 24.6474 54.2755 25.4873 52.9911 26.129C51.7067 26.7707 50.2571 27.0915 48.6424 27.0915C46.7341 27.0915 45.0277 26.6669 43.5231 25.8176C42.0368 24.9494 40.8717 23.7509 40.0276 22.2221C39.2019 20.6933 38.7891 18.9475 38.7891 16.9846C38.7891 15.0217 39.2019 13.2759 40.0276 11.7471C40.8717 10.1994 42.0368 9.00094 43.5231 8.15162C45.0093 7.28342 46.7066 6.84932 48.6149 6.84932C50.9269 6.84932 52.8718 7.42498 54.4498 8.57628C56.0462 9.72759 57.1013 11.3224 57.615 13.3608H52.4131Z" fill="#fbfbfb"/>
<path d="M75.0296 18.7965C75.0296 19.2494 75.002 19.7213 74.947 20.212H64.2955C64.3689 21.1935 64.6716 21.9484 65.2037 22.4769C65.7542 22.9865 66.4239 23.2413 67.2129 23.2413C68.3873 23.2413 69.2038 22.7317 69.6625 21.7125H74.6718C74.4149 22.7505 73.947 23.6848 73.2681 24.5153C72.6075 25.3457 71.7726 25.9969 70.7634 26.4687C69.7543 26.9405 68.6258 27.1765 67.3781 27.1765C65.8735 27.1765 64.534 26.8462 63.3597 26.1856C62.1853 25.525 61.2679 24.5813 60.6073 23.3545C59.9468 22.1277 59.6165 20.6933 59.6165 19.0513C59.6165 17.4092 59.9376 15.9748 60.5798 14.748C61.2404 13.5212 62.1578 12.5775 63.3321 11.917C64.5065 11.2564 65.8551 10.9261 67.3781 10.9261C68.8643 10.9261 70.1855 11.2469 71.3414 11.8886C72.4974 12.5304 73.3965 13.4457 74.0387 14.6348C74.6993 15.8238 75.0296 17.2111 75.0296 18.7965ZM70.213 17.5225C70.213 16.692 69.9377 16.0315 69.3873 15.5407C68.8368 15.05 68.1487 14.8047 67.323 14.8047C66.534 14.8047 65.8643 15.0406 65.3138 15.5124C64.7817 15.9843 64.4514 16.6543 64.323 17.5225H70.213Z" fill="#fbfbfb"/>
<path d="M86.8704 10.9827C88.6686 10.9827 90.0998 11.5867 91.164 12.7946C92.2466 13.9836 92.7879 15.6257 92.7879 17.7207V26.95H88.109V18.3718C88.109 17.3149 87.8429 16.4939 87.3108 15.9088C86.7787 15.3237 86.0631 15.0311 85.164 15.0311C84.2649 15.0311 83.5493 15.3237 83.0171 15.9088C82.485 16.4939 82.219 17.3149 82.219 18.3718V26.95H77.5125V11.1526H82.219V13.2476C82.696 12.5492 83.3382 12.0019 84.1456 11.6055C84.9529 11.1903 85.8612 10.9827 86.8704 10.9827Z" fill="#fbfbfb"/>
<path d="M108.086 23.4394H100.875L99.7191 26.95H94.7924L101.783 7.07581H107.233L114.224 26.95H109.242L108.086 23.4394ZM106.875 19.7024L104.481 12.4265L102.114 19.7024H106.875Z" fill="#fbfbfb"/>
<path d="M121.058 7.07581V26.95H116.352V7.07581H121.058Z" fill="#fbfbfb"/>
<path d="M147.036 7.07581V26.95H142.329V18.7682H135.008V26.95H130.301V7.07581H135.008V14.8613H142.329V7.07581H147.036Z" fill="#fbfbfb"/>
<path d="M164.91 18.7965C164.91 19.2494 164.883 19.7213 164.828 20.212H154.176C154.25 21.1935 154.553 21.9484 155.085 22.4769C155.635 22.9865 156.305 23.2413 157.094 23.2413C158.268 23.2413 159.085 22.7317 159.543 21.7125H164.553C164.296 22.7505 163.828 23.6848 163.149 24.5153C162.488 25.3457 161.654 25.9969 160.644 26.4687C159.635 26.9405 158.507 27.1765 157.259 27.1765C155.754 27.1765 154.415 26.8462 153.241 26.1856C152.066 25.525 151.149 24.5813 150.488 23.3545C149.828 22.1277 149.497 20.6933 149.497 19.0513C149.497 17.4092 149.819 15.9748 150.461 14.748C151.121 13.5212 152.039 12.5775 153.213 11.917C154.387 11.2564 155.736 10.9261 157.259 10.9261C158.745 10.9261 160.066 11.2469 161.222 11.8886C162.378 12.5304 163.277 13.4457 163.92 14.6348C164.58 15.8238 164.91 17.2111 164.91 18.7965ZM160.094 17.5225C160.094 16.692 159.819 16.0315 159.268 15.5407C158.718 15.05 158.03 14.8047 157.204 14.8047C156.415 14.8047 155.745 15.0406 155.195 15.5124C154.663 15.9843 154.332 16.6543 154.204 17.5225H160.094Z" fill="#fbfbfb"/>
<path d="M166.458 19.023C166.458 17.3998 166.751 15.9748 167.338 14.748C167.944 13.5212 168.76 12.5775 169.788 11.917C170.815 11.2564 171.962 10.9261 173.228 10.9261C174.311 10.9261 175.256 11.1526 176.063 11.6055C176.889 12.0585 177.522 12.653 177.962 13.3891V11.1526H182.669V26.95H177.962V24.7134C177.504 25.4495 176.861 26.044 176.036 26.497C175.228 26.95 174.283 27.1765 173.201 27.1765C171.953 27.1765 170.815 26.8462 169.788 26.1856C168.76 25.5061 167.944 24.553 167.338 23.3262C166.751 22.0805 166.458 20.6461 166.458 19.023ZM177.962 19.0513C177.962 17.8433 177.632 16.8902 176.972 16.1919C176.329 15.4936 175.54 15.1444 174.605 15.1444C173.669 15.1444 172.871 15.4936 172.21 16.1919C171.568 16.8713 171.247 17.815 171.247 19.023C171.247 20.2309 171.568 21.1935 172.21 21.9107C172.871 22.609 173.669 22.9582 174.605 22.9582C175.54 22.9582 176.329 22.609 176.972 21.9107C177.632 21.2123 177.962 20.2592 177.962 19.0513Z" fill="#fbfbfb"/>
<path d="M190.78 6V26.95H186.074V6H190.78Z" fill="#fbfbfb"/>
<path d="M202.751 22.8449V26.95H200.356C198.65 26.95 197.32 26.5253 196.365 25.676C195.411 24.8078 194.934 23.4017 194.934 21.4577V15.1727H193.063V11.1526H194.934V7.3023H199.641V11.1526H202.723V15.1727H199.641V21.5143C199.641 21.9862 199.751 22.3259 199.971 22.5335C200.191 22.7411 200.558 22.8449 201.072 22.8449H202.751Z" fill="#fbfbfb"/>
<path d="M214.813 10.9827C216.574 10.9827 217.987 11.5867 219.051 12.7946C220.116 13.9836 220.648 15.6257 220.648 17.7207V26.95H215.969V18.3718C215.969 17.3149 215.703 16.4939 215.171 15.9088C214.639 15.3237 213.923 15.0311 213.024 15.0311C212.125 15.0311 211.409 15.3237 210.877 15.9088C210.345 16.4939 210.079 17.3149 210.079 18.3718V26.95H205.372V6H210.079V13.2759C210.556 12.5775 211.207 12.0208 212.033 11.6055C212.859 11.1903 213.785 10.9827 214.813 10.9827Z" fill="#fbfbfb"/>
<path d="M222.983 19.0513C222.983 17.4092 223.304 15.9748 223.946 14.748C224.606 13.5212 225.515 12.5775 226.671 11.917C227.845 11.2564 229.185 10.9261 230.689 10.9261C232.616 10.9261 234.221 11.4451 235.506 12.4832C236.808 13.5212 237.662 14.984 238.065 16.8713H233.056C232.634 15.6634 231.818 15.0595 230.607 15.0595C229.744 15.0595 229.056 15.4086 228.542 16.107C228.029 16.7864 227.772 17.7679 227.772 19.0513C227.772 20.3347 228.029 21.3256 228.542 22.0239C229.056 22.7034 229.744 23.0431 230.607 23.0431C231.818 23.0431 232.634 22.4391 233.056 21.2312H238.065C237.662 23.0808 236.808 24.5341 235.506 25.5911C234.203 26.648 232.597 27.1765 230.689 27.1765C229.185 27.1765 227.845 26.8462 226.671 26.1856C225.515 25.525 224.606 24.5813 223.946 23.3545C223.304 22.1277 222.983 20.6933 222.983 19.0513Z" fill="#fbfbfb"/>
<path d="M239.647 19.023C239.647 17.3998 239.941 15.9748 240.528 14.748C241.133 13.5212 241.95 12.5775 242.977 11.917C244.005 11.2564 245.152 10.9261 246.418 10.9261C247.5 10.9261 248.445 11.1526 249.253 11.6055C250.078 12.0585 250.711 12.653 251.152 13.3891V11.1526H255.858V26.95H251.152V24.7134C250.693 25.4495 250.051 26.044 249.225 26.497C248.418 26.95 247.473 27.1765 246.39 27.1765C245.143 27.1765 244.005 26.8462 242.977 26.1856C241.95 25.5061 241.133 24.553 240.528 23.3262C239.941 22.0805 239.647 20.6461 239.647 19.023ZM251.152 19.0513C251.152 17.8433 250.822 16.8902 250.161 16.1919C249.519 15.4936 248.73 15.1444 247.794 15.1444C246.858 15.1444 246.06 15.4936 245.399 16.1919C244.757 16.8713 244.436 17.815 244.436 19.023C244.436 20.2309 244.757 21.1935 245.399 21.9107C246.06 22.609 246.858 22.9582 247.794 22.9582C248.73 22.9582 249.519 22.609 250.161 21.9107C250.822 21.2123 251.152 20.2592 251.152 19.0513Z" fill="#fbfbfb"/>
<path d="M263.97 13.7855C264.52 12.9173 265.208 12.2378 266.034 11.7471C266.86 11.2375 267.777 10.9827 268.786 10.9827V16.107H267.493C266.318 16.107 265.438 16.3712 264.851 16.8997C264.263 17.4092 263.97 18.3152 263.97 19.6175V26.95H259.263V11.1526H263.97V13.7855Z" fill="#fbfbfb"/>
<path d="M285.513 18.7965C285.513 19.2494 285.486 19.7213 285.431 20.212H274.779C274.853 21.1935 275.155 21.9484 275.687 22.4769C276.238 22.9865 276.908 23.2413 277.697 23.2413C278.871 23.2413 279.687 22.7317 280.146 21.7125H285.155C284.899 22.7505 284.431 23.6848 283.752 24.5153C283.091 25.3457 282.256 25.9969 281.247 26.4687C280.238 26.9405 279.109 27.1765 277.862 27.1765C276.357 27.1765 275.018 26.8462 273.843 26.1856C272.669 25.525 271.752 24.5813 271.091 23.3545C270.43 22.1277 270.1 20.6933 270.1 19.0513C270.1 17.4092 270.421 15.9748 271.063 14.748C271.724 13.5212 272.641 12.5775 273.816 11.917C274.99 11.2564 276.339 10.9261 277.862 10.9261C279.348 10.9261 280.669 11.2469 281.825 11.8886C282.981 12.5304 283.88 13.4457 284.522 14.6348C285.183 15.8238 285.513 17.2111 285.513 18.7965ZM280.697 17.5225C280.697 16.692 280.421 16.0315 279.871 15.5407C279.32 15.05 278.632 14.8047 277.807 14.8047C277.018 14.8047 276.348 15.0406 275.798 15.5124C275.265 15.9843 274.935 16.6543 274.807 17.5225H280.697Z" fill="#fbfbfb"/>
<path d="M27.8134 10.4087H22.3834V4.73887C24.1934 4.61336 27.8134 5.57162 27.8134 10.4087Z" fill="#a3a4ff"/>
<path d="M5.26425 10.4087H10.6943V4.73887C8.88428 4.61336 5.26425 5.57162 5.26425 10.4087Z" fill="#a3a4ff"/>
<path d="M22.3834 22.7236H27.8134C27.8134 27.5606 24.1934 28.5189 22.3834 28.3934V22.7236Z" fill="#a3a4ff"/>
<path d="M5.26425 22.7236H10.6943V28.3934C8.88428 28.5189 5.26425 27.5606 5.26425 22.7236Z" fill="#a3a4ff"/>
<path d="M27.1917 21.9228C29.8473 21.9228 32 19.6224 32 16.7846V16.5631C32 13.7253 29.8473 11.4249 27.1917 11.4249H22.3834V21.9228H27.1917Z" fill="#a3a4ff"/>
<path d="M16.5388 33C13.8833 33 11.7305 30.6995 11.7305 27.8617V22.7235H21.5544V27.8617C21.5544 30.6995 19.4016 33 16.7461 33H16.5388Z" fill="#a3a4ff"/>
<path d="M16.6425 0C13.9297 0 11.7305 2.35005 11.7305 5.24899V11.4249H4.91191C2.19914 11.4249 0 13.7749 0 16.6739C0 19.5728 2.19913 21.9228 4.91191 21.9228H11.7305V21.9262H21.5544V5.24899C21.5544 2.35005 19.3552 0 16.6425 0Z" fill="#9c27b0"/>
</svg>