<svg width="139" height="41" viewBox="0 0 139 41" fill="none" xmlns="http://www.w3.org/2000/svg">
<path fill-rule="evenodd" clip-rule="evenodd" d="M133.877 40.5487H5.84217C3.01844 40.5487 0.71875 38.2634 0.71875 35.4801V5.06859C0.71875 2.27518 3.01844 0 5.84217 0H133.877C136.698 0 139 2.27518 139 5.06859V35.4801C139 38.2634 136.698 40.5487 133.877 40.5487Z" fill="#333333"/>
<path fill-rule="evenodd" clip-rule="evenodd" d="M133.877 0.81148C136.245 0.81148 138.184 2.72516 138.184 5.06859V35.4801C138.184 37.8236 136.258 39.7373 133.877 39.7373H5.84217C3.4738 39.7373 1.53534 37.8236 1.53534 35.4801V5.06859C1.53534 2.72516 3.46108 0.81148 5.84217 0.81148H133.877ZM133.877 0H5.84217C3.01844 0 0.71875 2.28529 0.71875 5.06859V35.4801C0.71875 38.2736 3.01844 40.5487 5.84217 40.5487H133.877C136.698 40.5487 139 38.2736 139 35.4801V5.06859C139 2.28529 136.698 0 133.877 0Z" fill="#333333"/>
<path d="M73.5642 13.4144C72.6408 13.4144 71.8624 13.0934 71.2467 12.4614C70.6362 11.8471 70.2953 11.0002 70.3106 10.1356C70.3106 9.21292 70.626 8.43178 71.2467 7.81242C71.8598 7.18043 72.6382 6.85938 73.5617 6.85938C74.4749 6.85938 75.2534 7.18043 75.8792 7.81242C76.4999 8.452 76.8153 9.23314 76.8153 10.1356C76.8052 11.0609 76.4897 11.842 75.8792 12.4588C75.2661 13.0959 74.4877 13.4144 73.5642 13.4144ZM46.0875 13.4144C45.1844 13.4144 44.4009 13.0984 43.7598 12.474C43.1239 11.8521 42.8008 11.0659 42.8008 10.1382C42.8008 9.21039 43.1239 8.42419 43.7598 7.80231C44.3882 7.1779 45.1717 6.8619 46.0875 6.8619C46.5352 6.8619 46.9702 6.95038 47.3874 7.12987C47.797 7.3043 48.1303 7.54193 48.377 7.83265L48.4381 7.90596L47.7487 8.5784L47.6774 8.49498C47.2882 8.03488 46.7667 7.80989 46.0773 7.80989C45.4617 7.80989 44.9249 8.0273 44.4823 8.45706C44.0371 8.88934 43.8107 9.45561 43.8107 10.1407C43.8107 10.8258 44.0371 11.392 44.4823 11.8243C44.9249 12.2541 45.4617 12.4715 46.0773 12.4715C46.7337 12.4715 47.2857 12.2541 47.7156 11.8243C47.97 11.5715 48.1277 11.2176 48.1837 10.7702H45.973V9.82469H49.1326L49.1453 9.91064C49.1682 10.0699 49.1911 10.2342 49.1911 10.3859C49.1911 11.2581 48.9265 11.9634 48.4025 12.4841C47.8072 13.1009 47.0288 13.4144 46.0875 13.4144ZM82.6205 13.2804H81.6462L78.6622 8.53542L78.6877 9.38988V13.2779H77.7133V6.99589H78.825L78.8556 7.04392L81.6615 11.5134L81.636 10.6615V6.99589H82.6205V13.2804ZM66.2429 13.2804H65.2558V7.94135H63.5438V6.99589H67.9524V7.94135H66.2403V13.2804H66.2429ZM62.7399 13.2804H61.7554V6.99589H62.7399V13.2804ZM57.2069 13.2804H56.2224V7.94135H54.5104V6.99589H58.919V7.94135H57.2069V13.2804ZM53.8871 13.2703H50.112V6.99589H53.8871V7.94135H51.099V9.66543H53.6149V10.6008H51.099V12.3249H53.8871V13.2703ZM71.9692 11.8117C72.4093 12.249 72.9435 12.469 73.5642 12.469C74.2028 12.469 74.7242 12.2541 75.1593 11.8117C75.5917 11.3819 75.8105 10.8182 75.8105 10.1382C75.8105 9.45813 75.5917 8.89187 75.1618 8.46464C74.7217 8.0273 74.1849 7.80737 73.5668 7.80737C72.9282 7.80737 72.4068 8.02224 71.9743 8.46464C71.5418 8.8944 71.323 9.45813 71.323 10.1382C71.323 10.8182 71.5393 11.3845 71.9692 11.8117Z" fill="white"/>
<path fill-rule="evenodd" clip-rule="evenodd" d="M70.2209 22.0536C67.8169 22.0536 65.8683 23.8662 65.8683 26.3663C65.8683 28.8438 67.8297 30.6791 70.2209 30.6791C72.6249 30.6791 74.5735 28.8539 74.5735 26.3663C74.5735 23.8662 72.6249 22.0536 70.2209 22.0536ZM70.2209 28.9702C68.9057 28.9702 67.7737 27.8882 67.7737 26.3562C67.7737 24.8015 68.9083 23.7423 70.2209 23.7423C71.5361 23.7423 72.6682 24.8015 72.6682 26.3562C72.6707 27.8983 71.5361 28.9702 70.2209 28.9702ZM60.7245 22.0536C58.3205 22.0536 56.3719 23.8662 56.3719 26.3663C56.3719 28.8438 58.3333 30.6791 60.7245 30.6791C63.1285 30.6791 65.0771 28.8539 65.0771 26.3663C65.0771 23.8662 63.126 22.0536 60.7245 22.0536ZM60.7245 28.9702C59.4093 28.9702 58.2773 27.8882 58.2773 26.3562C58.2773 24.8015 59.4119 23.7423 60.7245 23.7423C62.0397 23.7423 63.1718 24.8015 63.1718 26.3562C63.1718 27.8983 62.0397 28.9702 60.7245 28.9702ZM49.4245 23.3707V25.1959H53.8331C53.6983 26.2197 53.3574 26.9756 52.8359 27.4938C52.1897 28.1359 51.1925 28.8336 49.4347 28.8336C46.7254 28.8336 44.6063 26.6596 44.6063 23.9673C44.6063 21.275 46.7254 19.1009 49.4347 19.1009C50.8974 19.1009 51.9633 19.6748 52.7545 20.4079L54.0569 19.1136C52.958 18.067 51.4952 17.2656 49.4448 17.2656C45.7282 17.2656 42.6094 20.2739 42.6094 23.9572C42.6094 27.6506 45.7257 30.6487 49.4448 30.6487C51.452 30.6487 52.958 29.9965 54.1485 28.7679C55.362 27.5621 55.7461 25.8607 55.7461 24.4881C55.7461 24.0608 55.713 23.6766 55.6443 23.3505H49.422C49.4245 23.3479 49.4245 23.3707 49.4245 23.3707ZM95.6447 24.7914C95.2809 23.8232 94.182 22.0435 91.9281 22.0435C89.6945 22.0435 87.8375 23.7903 87.8375 26.3562C87.8375 28.778 89.6742 30.669 92.1443 30.669C94.1285 30.669 95.2835 29.4631 95.7592 28.7553L94.2863 27.7744C93.7978 28.4949 93.1186 28.9676 92.1545 28.9676C91.1802 28.9676 90.4984 28.5278 90.0456 27.6607L95.8482 25.2717C95.8482 25.2743 95.6447 24.7914 95.6447 24.7914ZM89.7276 26.2324C89.6818 24.5664 91.0301 23.7195 91.9942 23.7195C92.7548 23.7195 93.3883 24.0912 93.6045 24.6321L89.7276 26.2324ZM85.0137 30.4111H86.9191V17.7409H85.0137V30.4111ZM81.8847 23.0117H81.816C81.3861 22.5036 80.5695 22.0435 79.5265 22.0435C77.3617 22.0435 75.3672 23.937 75.3672 26.3689C75.3672 28.7907 77.3515 30.6614 79.5265 30.6614C80.5568 30.6614 81.3861 30.1987 81.816 29.6805H81.8847V30.2999C81.8847 31.9456 80.9994 32.8329 79.5723 32.8329C78.4047 32.8329 77.6796 31.9987 77.3846 31.3009L75.7285 31.9886C76.2042 33.1261 77.4736 34.5342 79.5698 34.5342C81.8033 34.5342 83.696 33.2273 83.696 30.0395V22.3014H81.8949V23.0117C81.8974 23.0117 81.8847 23.0117 81.8847 23.0117ZM79.697 28.9702C78.3818 28.9702 77.2828 27.8781 77.2828 26.3689C77.2828 24.847 78.3818 23.7448 79.697 23.7448C80.9995 23.7448 82.0094 24.8597 82.0094 26.3689C82.0221 27.8781 81.002 28.9702 79.697 28.9702ZM104.566 17.7409H100.01V30.4111H101.915V25.613H104.569C106.678 25.613 108.751 24.0937 108.751 21.682C108.751 19.2703 106.685 17.7409 104.566 17.7409ZM104.622 23.8434H101.913V19.4953H104.622C106.049 19.4953 106.856 20.6658 106.856 21.6694C106.856 22.6629 106.039 23.8434 104.622 23.8434ZM116.388 22.0309C115.004 22.0309 113.577 22.6401 112.987 23.9673L114.676 24.665C115.039 23.9673 115.706 23.7297 116.411 23.7297C117.398 23.7297 118.395 24.3161 118.418 25.3627V25.4967C118.077 25.3046 117.329 25.0113 116.434 25.0113C114.61 25.0113 112.76 26.0023 112.76 27.8604C112.76 29.5617 114.256 30.6538 115.922 30.6538C117.202 30.6538 117.906 30.0799 118.347 29.4151H118.415V30.3959H120.252V25.5422C120.252 23.2822 118.563 22.0309 116.388 22.0309ZM116.149 28.9702C115.525 28.9702 114.653 28.6668 114.653 27.8882C114.653 26.9073 115.742 26.5357 116.67 26.5357C117.51 26.5357 117.906 26.7152 118.405 26.9629C118.268 28.1005 117.301 28.96 116.149 28.9702ZM126.953 22.3014L124.765 27.7972H124.696L122.429 22.3014H120.379L123.78 29.9839L121.842 34.2536H123.826L129.059 22.3014H126.953ZM109.802 30.4111H111.707V17.7409H109.802V30.4111Z" fill="white"/>
<path fill-rule="evenodd" clip-rule="evenodd" d="M11.364 7.63662C11.0689 7.95261 10.8984 8.43546 10.8984 9.06745V31.483C10.8984 32.115 11.0689 32.5979 11.3741 32.9012L11.453 32.9695L24.0911 20.4105V20.1299L11.4428 7.56836L11.364 7.63662Z" fill="url(#paint0_linear_2800_36045)"/>
<path fill-rule="evenodd" clip-rule="evenodd" d="M28.2934 24.6104L24.0781 20.4216V20.1283L28.2934 15.9395L28.385 15.9951L33.371 18.8112C34.7981 19.6101 34.7981 20.9297 33.371 21.7386L28.385 24.5548L28.2934 24.6104Z" fill="url(#paint1_linear_2800_36045)"/>
<path fill-rule="evenodd" clip-rule="evenodd" d="M28.3871 24.5533L24.0803 20.2734L11.3633 32.9108C11.8288 33.4063 12.6098 33.4619 13.4824 32.979L28.3871 24.5533Z" fill="url(#paint2_linear_2800_36045)"/>
<path fill-rule="evenodd" clip-rule="evenodd" d="M28.3871 15.9945L13.4824 7.58143C12.6098 7.08595 11.8263 7.1542 11.3633 7.64969L24.0803 20.2744L28.3871 15.9945Z" fill="url(#paint3_linear_2800_36045)"/>
<path opacity="0.2" fill-rule="evenodd" clip-rule="evenodd" d="M28.2931 24.4629L13.4902 32.8204C12.6634 33.2931 11.9257 33.2602 11.45 32.8305L11.3711 32.9089L11.45 32.9771C11.9257 33.4043 12.6634 33.4397 13.4902 32.967L28.3949 24.5539L28.2931 24.4629Z" fill="#333333"/>
<path opacity="0.12" fill-rule="evenodd" clip-rule="evenodd" d="M33.3716 21.5905L28.2812 24.4623L28.3728 24.5533L33.3589 21.7371C34.0737 21.3327 34.4248 20.8018 34.4248 20.2734C34.3815 20.7588 34.0178 21.2189 33.3716 21.5905Z" fill="#333333"/>
<path opacity="0.25" fill-rule="evenodd" clip-rule="evenodd" d="M13.483 7.72856L33.3738 18.9578C34.02 19.3193 34.3838 19.7921 34.4397 20.2749C34.4397 19.7466 34.0887 19.2157 33.3738 18.8112L13.483 7.58194C12.0559 6.77046 10.8984 7.44796 10.8984 9.06839V9.21501C10.8984 7.59205 12.0559 6.92719 13.483 7.72856Z" fill="white"/>
<defs>
<linearGradient id="paint0_linear_2800_36045" x1="22.9576" y1="8.82613" x2="2.73048" y2="14.2496" gradientUnits="userSpaceOnUse">
<stop stop-color="#00A0FF"/>
<stop offset="0.00657" stop-color="#00A1FF"/>
<stop offset="0.2601" stop-color="#00BEFF"/>
<stop offset="0.5122" stop-color="#00D2FF"/>
<stop offset="0.7604" stop-color="#00DFFF"/>
<stop offset="1" stop-color="#00E3FF"/>
</linearGradient>
<linearGradient id="paint1_linear_2800_36045" x1="35.2321" y1="20.2749" x2="10.5488" y2="20.2749" gradientUnits="userSpaceOnUse">
<stop stop-color="#FFE000"/>
<stop offset="0.4087" stop-color="#FFBD00"/>
<stop offset="0.7754" stop-color="#FFA500"/>
<stop offset="1" stop-color="#FF9C00"/>
</linearGradient>
<linearGradient id="paint2_linear_2800_36045" x1="26.0441" y1="22.6017" x2="9.94277" y2="49.8724" gradientUnits="userSpaceOnUse">
<stop stop-color="#FF3A44"/>
<stop offset="1" stop-color="#C31162"/>
</linearGradient>
<linearGradient id="paint3_linear_2800_36045" x1="8.16114" y1="0.181188" x2="15.3445" y2="12.3607" gradientUnits="userSpaceOnUse">
<stop stop-color="#32A071"/>
<stop offset="0.0685" stop-color="#2DA771"/>
<stop offset="0.4762" stop-color="#15CF74"/>
<stop offset="0.8009" stop-color="#06E775"/>
<stop offset="1" stop-color="#00F076"/>
</linearGradient>
</defs>
</svg>
