<svg width="72" height="72" viewBox="0 0 72 72" fill="none" xmlns="http://www.w3.org/2000/svg">
<g clip-path="url(#clip0_2800_36031)">
<path d="M36 4C29.671 4 23.4841 5.87677 18.2218 9.39297C12.9594 12.9092 8.85787 17.9069 6.43587 23.7541C4.01386 29.6014 3.38016 36.0355 4.61489 42.2429C5.84961 48.4503 8.89732 54.1521 13.3726 58.6274C17.8479 63.1027 23.5497 66.1504 29.7571 67.3851C35.9645 68.6199 42.3986 67.9862 48.2459 65.5641C54.0931 63.1421 59.0908 59.0406 62.607 53.7782C66.1232 48.5159 68 42.329 68 36C68 27.5131 64.6286 19.3737 58.6274 13.3726C52.6263 7.37142 44.4869 4 36 4ZM36 64C30.4621 64 25.0486 62.3578 20.444 59.2812C15.8395 56.2045 12.2506 51.8315 10.1314 46.7151C8.01213 41.5988 7.45764 35.9689 8.53803 30.5375C9.61841 25.106 12.2852 20.1169 16.201 16.201C20.1169 12.2851 25.106 9.6184 30.5375 8.53801C35.969 7.45763 41.5988 8.01212 46.7152 10.1314C51.8315 12.2506 56.2045 15.8395 59.2812 20.444C62.3578 25.0486 64 30.4621 64 36C64 43.4261 61.05 50.548 55.799 55.799C50.548 61.05 43.4261 64 36 64Z" fill="#1CBE84"/>
<path d="M56.0018 24.2007C55.6271 23.8282 55.1202 23.6191 54.5918 23.6191C54.0635 23.6191 53.5566 23.8282 53.1818 24.2007L30.9818 46.3007L18.9818 34.3007C18.6158 33.9056 18.1078 33.672 17.5696 33.6513C17.0314 33.6307 16.507 33.8247 16.1118 34.1907C15.7167 34.5567 15.4831 35.0647 15.4624 35.6029C15.4418 36.1412 15.6358 36.6656 16.0018 37.0607L30.9818 52.0007L56.0018 27.0407C56.1893 26.8548 56.3381 26.6336 56.4396 26.3899C56.5411 26.1462 56.5934 25.8848 56.5934 25.6207C56.5934 25.3567 56.5411 25.0953 56.4396 24.8516C56.3381 24.6079 56.1893 24.3867 56.0018 24.2007Z" fill="#1CBE84"/>
</g>
<defs>
<clipPath id="clip0_2800_36031">
<rect width="72" height="72" fill="white"/>
</clipPath>
</defs>
</svg>
